<svg xmlns="http://www.w3.org/2000/svg" width="33" height="32" fill="none"><path fill="#949495" d="M24.538 2C28.108 2 31 4.865 31 8.398c0 3.534-2.893 6.399-6.462 6.399h-6.461V8.398C18.077 4.865 20.97 2 24.538 2Z" opacity=".5"/><path fill="#949495" d="M3 8.398C3 4.865 5.893 2 9.462 2c3.568 0 6.461 2.865 6.461 6.398v6.399H9.462C5.892 14.797 3 11.932 3 8.398Zm6.462 21.329C5.892 29.727 3 26.862 3 23.328s2.893-6.398 6.462-6.398h6.461v6.398c0 3.534-2.893 6.399-6.461 6.399ZM31 23.328c0 3.534-2.893 6.399-6.462 6.399-3.568 0-6.461-2.865-6.461-6.399V16.93h6.461c3.57 0 6.462 2.864 6.462 6.398Z"/></svg>