<svg xmlns="http://www.w3.org/2000/svg" width="33" height="32" fill="none"><path fill="#333336" d="M7.952 7.429c.821.667 1.13.616 2.672.513l14.541-.873c.308 0 .052-.308-.051-.359l-2.415-1.745c-.463-.36-1.08-.771-2.26-.668L6.358 5.324c-.514.05-.617.307-.412.513L7.952 7.43Zm.873 3.389v15.3c0 .822.41 1.13 1.336 1.078l15.98-.924c.926-.051 1.029-.617 1.029-1.285V9.79c0-.667-.257-1.026-.823-.975l-16.7.975c-.616.052-.822.36-.822 1.028Zm15.776.82c.102.463 0 .925-.463.977l-.77.153v11.296c-.669.359-1.285.564-1.799.564-.823 0-1.029-.257-1.645-1.026l-5.036-7.907v7.65l1.594.36s0 .923-1.286.923l-3.545.206c-.103-.206 0-.719.36-.821l.925-.257V13.642l-1.285-.103c-.103-.463.154-1.13.874-1.182l3.803-.256 5.241 8.01v-7.086l-1.336-.153c-.103-.566.307-.976.821-1.027l3.547-.207Zm-19.425-7.7 14.646-1.079c1.798-.154 2.26-.05 3.391.77l4.675 3.286c.772.565 1.029.719 1.029 1.335v18.022c0 1.13-.412 1.797-1.85 1.9l-17.008 1.026c-1.08.052-1.594-.102-2.16-.821L4.458 23.91c-.617-.822-.873-1.438-.873-2.157V5.733c0-.923.411-1.693 1.592-1.795Z" opacity=".5"/></svg>