<svg xmlns="http://www.w3.org/2000/svg" width="33" height="32" fill="none"><path fill="#333336" d="M16.25 2.6c7.366 0 13.333 5.967 13.333 13.334a13.354 13.354 0 0 1-9.083 12.65c-.667.133-.917-.283-.917-.633 0-.45.017-1.884.017-3.667 0-1.25-.417-2.05-.9-2.467 2.966-.333 6.083-1.466 6.083-6.583 0-1.467-.517-2.65-1.367-3.583.134-.334.6-1.7-.133-3.534 0 0-1.117-.366-3.667 1.367-1.066-.3-2.2-.45-3.333-.45s-2.267.15-3.333.45C10.4 7.767 9.283 8.117 9.283 8.117c-.733 1.834-.266 3.2-.133 3.534-.85.933-1.367 2.133-1.367 3.583 0 5.1 3.1 6.25 6.067 6.583-.383.334-.733.917-.85 1.784-.767.35-2.684.916-3.883-1.1-.25-.4-1-1.384-2.05-1.367-1.117.017-.45.633.016.883.567.317 1.217 1.5 1.367 1.884.267.75 1.133 2.183 4.483 1.566 0 1.117.017 2.167.017 2.484 0 .35-.25.75-.917.633a13.325 13.325 0 0 1-9.116-12.65C2.917 8.567 8.883 2.6 16.25 2.6Z" opacity=".5"/></svg>