<svg xmlns="http://www.w3.org/2000/svg" width="27" height="32" fill="none"><g fill="#A3A3A4" clip-path="url(#a)" opacity=".84"><path d="M16.836 3.685 14.197 3l-2.223 8.035-2.008-7.254-2.64.684 2.17 7.838-5.403-5.23-1.932 1.87 5.927 5.737-7.38-1.915L0 15.32l8.064 2.092a5.146 5.146 0 0 1-.141-1.2c0-2.921 2.446-5.29 5.464-5.29 3.018 0 5.464 2.369 5.464 5.29 0 .41-.048.81-.14 1.193l7.33 1.9.707-2.554-8.097-2.1 7.381-1.915-.707-2.555-8.096 2.1 5.404-5.23L20.7 5.18l-5.845 5.657 1.98-7.153Z"/><path d="M18.704 17.434a5.23 5.23 0 0 1-1.36 2.425l5.31 5.14 1.932-1.87-5.882-5.695Zm-1.413 2.479a5.5 5.5 0 0 1-2.441 1.397l1.932 6.98 2.638-.684-2.129-7.693Zm-2.541 1.423a5.64 5.64 0 0 1-2.82-.024l-1.935 6.986 2.64.685 2.116-7.647Zm-2.914-.05a5.496 5.496 0 0 1-2.399-1.418L4.115 25.02l1.931 1.87 5.79-5.604Zm-2.443-1.464a5.228 5.228 0 0 1-1.325-2.394L.715 19.335l.707 2.555 7.971-2.068Z"/></g><defs><clipPath id="a"><path fill="#fff" d="M.5 0h26v32H.5z"/></clipPath></defs></svg>