<svg xmlns="http://www.w3.org/2000/svg" width="320" height="106" fill="none"><path fill="#fff" d="M36.642 5.179a93.026 93.026 0 0 0-.372 4.58 125.761 125.761 0 0 0-.062 3.342c0 .99.021 1.919.062 2.785.042.867.083 1.63.124 2.29h-1.423c-.29-2.888-.681-5.157-1.176-6.808-.496-1.692-1.362-2.91-2.6-3.652-1.238-.743-3.157-1.114-5.756-1.114h-3.343V41.82c0 1.65.145 2.889.434 3.714.33.825.949 1.382 1.857 1.671.907.289 2.228.475 3.96.557V49c-1.072-.083-2.434-.124-4.084-.124a210.863 210.863 0 0 0-10.274 0c-1.61 0-2.91.041-3.9.124v-1.238c1.733-.082 3.053-.268 3.961-.557.908-.289 1.506-.846 1.795-1.671.33-.825.495-2.063.495-3.714V6.602h-3.342c-2.558 0-4.477.371-5.756 1.114-1.238.743-2.105 1.96-2.6 3.652-.495 1.65-.887 3.92-1.176 6.808H2.043c.082-.66.123-1.423.123-2.29.042-.866.062-1.795.062-2.785 0-.784-.041-1.898-.124-3.342a59.568 59.568 0 0 0-.31-4.58c1.734.04 3.611.082 5.633.123 2.064.042 4.127.062 6.19.062h11.202c2.064 0 4.127-.02 6.19-.062 2.063-.04 3.94-.082 5.633-.123ZM46.497.536v23.15c1.073-2.807 2.559-4.746 4.457-5.82 1.94-1.072 3.961-1.608 6.066-1.608 1.568 0 2.867.206 3.899.619 1.073.412 1.96.99 2.661 1.733.784.825 1.341 1.857 1.672 3.094.33 1.238.495 2.91.495 5.014v16.526c0 1.733.35 2.909 1.052 3.528.743.619 1.96.928 3.652.928V49c-.702-.041-1.775-.083-3.219-.124a73.838 73.838 0 0 0-4.209-.124 64.51 64.51 0 0 0-4.023.124c-1.279.041-2.249.083-2.909.124v-1.3c1.486 0 2.538-.31 3.157-.928.619-.62.928-1.795.928-3.528V25.356c0-1.279-.103-2.455-.31-3.528-.206-1.073-.68-1.94-1.423-2.6-.701-.66-1.795-.99-3.28-.99-2.517 0-4.601 1.053-6.252 3.157-1.609 2.063-2.413 4.745-2.413 8.046v13.803c0 1.733.309 2.909.928 3.528.619.619 1.671.928 3.157.928V49c-.66-.041-1.651-.083-2.971-.124-1.28-.082-2.6-.124-3.962-.124a74.35 74.35 0 0 0-4.209.124c-1.444.041-2.517.083-3.218.124v-1.3c1.692 0 2.888-.31 3.59-.928.743-.62 1.114-1.795 1.114-3.528V7.964c0-1.857-.33-3.219-.99-4.085-.66-.908-1.898-1.362-3.714-1.362v-1.3c1.32.124 2.6.186 3.837.186a29.69 29.69 0 0 0 3.405-.186 19.402 19.402 0 0 0 3.032-.68Zm38.616 15.722c3.631 0 6.458 1.114 8.48 3.342 2.063 2.187 3.094 5.612 3.094 10.274H74.838l-.061-1.175h15.968c.083-2.022-.082-3.88-.495-5.571-.412-1.733-1.073-3.115-1.98-4.147-.867-1.032-2.002-1.547-3.405-1.547-1.898 0-3.59.949-5.075 2.847-1.444 1.898-2.31 4.91-2.6 9.037l.186.247c-.082.619-.144 1.3-.186 2.043a40.126 40.126 0 0 0-.061 2.228c0 2.806.453 5.22 1.361 7.242.908 2.021 2.084 3.569 3.528 4.642 1.486 1.031 3.013 1.547 4.58 1.547 1.857 0 3.57-.454 5.138-1.362 1.568-.907 2.888-2.517 3.961-4.828l1.238.496c-.454 1.361-1.197 2.682-2.228 3.96-1.032 1.28-2.332 2.332-3.9 3.157-1.568.785-3.383 1.177-5.446 1.177-2.971 0-5.53-.681-7.675-2.043-2.105-1.362-3.735-3.24-4.89-5.632-1.114-2.435-1.671-5.22-1.671-8.356 0-3.631.578-6.747 1.733-9.346 1.155-2.641 2.785-4.663 4.89-6.066 2.104-1.444 4.56-2.166 7.365-2.166Zm46.661-11.946c2.724 0 4.952.413 6.685 1.238 1.774.784 3.342 1.712 4.704 2.785.825.62 1.444.702 1.857.248.454-.495.763-1.63.928-3.404h1.424a160.517 160.517 0 0 0-.186 5.57 483.205 483.205 0 0 0-.062 8.665h-1.423c-.289-1.774-.557-3.177-.805-4.209-.248-1.072-.557-1.98-.928-2.723a10.768 10.768 0 0 0-1.362-2.228c-1.279-1.692-2.888-2.91-4.828-3.652a16.193 16.193 0 0 0-6.127-1.176c-2.022 0-3.859.516-5.509 1.547-1.609.99-3.012 2.435-4.209 4.333-1.155 1.898-2.063 4.188-2.723 6.87-.619 2.683-.929 5.695-.929 9.037 0 3.466.351 6.54 1.053 9.222.701 2.641 1.671 4.87 2.909 6.685 1.279 1.816 2.764 3.198 4.456 4.147a11.83 11.83 0 0 0 5.571 1.362c1.856 0 3.796-.372 5.818-1.114 2.022-.743 3.61-1.94 4.766-3.59a10.31 10.31 0 0 0 1.856-3.9c.372-1.403.702-3.363.991-5.88h1.423c0 3.755.021 6.788.062 9.099.041 2.27.103 4.188.186 5.756h-1.424c-.165-1.774-.454-2.888-.866-3.342-.372-.454-1.011-.392-1.919.185a33.66 33.66 0 0 1-4.89 2.847c-1.691.785-3.878 1.177-6.561 1.177-3.92 0-7.365-.888-10.336-2.662-2.93-1.774-5.22-4.333-6.87-7.675-1.61-3.342-2.414-7.365-2.414-12.07 0-4.62.846-8.665 2.538-12.13 1.691-3.467 4.002-6.17 6.932-8.109 2.971-1.94 6.375-2.909 10.212-2.909Zm37.6 11.946c1.114 0 2.084.227 2.909.68.867.454 1.527 1.053 1.981 1.796.495.7.742 1.506.742 2.413 0 1.032-.33 1.94-.99 2.724-.619.784-1.465 1.176-2.538 1.176a3.529 3.529 0 0 1-2.29-.805c-.66-.578-.99-1.382-.99-2.414 0-.784.206-1.444.619-1.98.454-.578.949-1.032 1.485-1.362-.288-.413-.722-.62-1.299-.62-1.733 0-3.24.661-4.519 1.982-1.279 1.279-2.29 2.826-3.033 4.642-.701 1.815-1.052 3.486-1.052 5.013v13.122c0 2.022.578 3.383 1.733 4.085 1.197.66 2.806.99 4.828.99V49c-.949-.041-2.29-.083-4.023-.124a116.091 116.091 0 0 0-5.509-.124c-1.403 0-2.806.042-4.209.124-1.361.041-2.393.083-3.094.124v-1.3c1.692 0 2.888-.31 3.59-.928.742-.62 1.114-1.795 1.114-3.528V23.87c0-1.857-.33-3.219-.991-4.085-.66-.908-1.898-1.362-3.713-1.362v-1.3c1.32.124 2.599.186 3.837.186a29.66 29.66 0 0 0 3.404-.186 19.384 19.384 0 0 0 3.033-.68v7.736c.454-1.196 1.094-2.393 1.919-3.59a12.256 12.256 0 0 1 3.095-3.094 6.824 6.824 0 0 1 3.961-1.238Zm19.05 0c3.631 0 6.458 1.114 8.48 3.342 2.063 2.187 3.094 5.612 3.094 10.274h-21.849l-.061-1.175h15.968c.083-2.022-.082-3.88-.495-5.571-.412-1.733-1.073-3.115-1.98-4.147-.867-1.032-2.002-1.547-3.405-1.547-1.898 0-3.589.949-5.075 2.847-1.444 1.898-2.311 4.91-2.6 9.037l.186.247c-.082.619-.144 1.3-.186 2.043a40.418 40.418 0 0 0-.061 2.228c0 2.806.453 5.22 1.361 7.242.908 2.021 2.084 3.569 3.528 4.642 1.486 1.031 3.012 1.547 4.58 1.547 1.857 0 3.57-.454 5.138-1.362 1.568-.907 2.888-2.517 3.961-4.828l1.238.496c-.454 1.361-1.197 2.682-2.228 3.96-1.032 1.28-2.332 2.332-3.9 3.157-1.568.785-3.383 1.177-5.446 1.177-2.971 0-5.53-.681-7.675-2.043-2.105-1.362-3.735-3.24-4.89-5.632-1.114-2.435-1.671-5.22-1.671-8.356 0-3.631.577-6.747 1.733-9.346 1.155-2.641 2.785-4.663 4.89-6.066 2.104-1.444 4.559-2.166 7.365-2.166Zm21.469 33.175c-2.682 0-4.642-.66-5.88-1.98-1.197-1.362-1.795-3.157-1.795-5.385 0-1.733.412-3.157 1.238-4.27a9.765 9.765 0 0 1 3.28-2.786 24.972 24.972 0 0 1 4.147-1.857 361.793 361.793 0 0 0 4.209-1.547c1.32-.496 2.393-1.053 3.218-1.672.867-.619 1.3-1.402 1.3-2.352v-3.837c0-1.733-.268-3.053-.804-3.961-.496-.908-1.176-1.506-2.043-1.795-.866-.33-1.836-.495-2.909-.495-1.032 0-2.146.144-3.342.433-1.156.289-2.084.887-2.786 1.795.784.165 1.465.578 2.043 1.238.578.66.867 1.506.867 2.537 0 1.032-.331 1.857-.991 2.476-.66.578-1.506.867-2.537.867-1.197 0-2.084-.372-2.662-1.114a4.507 4.507 0 0 1-.805-2.6c0-1.073.269-1.94.805-2.6.536-.66 1.217-1.279 2.043-1.856.949-.66 2.166-1.218 3.651-1.672 1.527-.495 3.24-.742 5.138-.742 1.691 0 3.136.206 4.332.619 1.197.371 2.187.928 2.971 1.67a6.967 6.967 0 0 1 2.105 3.653c.33 1.402.495 3.094.495 5.075v17.207c0 .99.144 1.733.433 2.228.289.454.784.68 1.486.68.577 0 1.072-.123 1.485-.37a6.85 6.85 0 0 0 1.3-.93l.681 1.053a23.85 23.85 0 0 1-2.476 1.671c-.784.413-1.836.62-3.157.62-2.145 0-3.569-.558-4.271-1.672-.701-1.114-1.052-2.393-1.052-3.837-1.32 2.187-2.826 3.651-4.518 4.394a12.533 12.533 0 0 1-5.199 1.114Zm2.723-2.475c1.238 0 2.455-.351 3.652-1.053 1.197-.742 2.311-1.96 3.342-3.651V30.122c-.619.908-1.588 1.63-2.909 2.166-1.279.537-2.62 1.135-4.023 1.795a10.452 10.452 0 0 0-3.528 2.6c-.99 1.073-1.485 2.62-1.485 4.642 0 1.898.474 3.322 1.423 4.27.949.909 2.125 1.363 3.528 1.363Zm26.68-40.108v10.336h9.16v1.238h-9.16v23.953c0 1.94.35 3.301 1.052 4.085.701.784 1.671 1.176 2.909 1.176 1.238 0 2.311-.495 3.218-1.485.908-1.032 1.692-2.744 2.352-5.137l1.238.31c-.412 2.392-1.238 4.414-2.475 6.065-1.197 1.65-3.054 2.476-5.571 2.476-1.403 0-2.558-.186-3.466-.557a6.956 6.956 0 0 1-2.414-1.486c-.908-.95-1.547-2.084-1.919-3.404-.33-1.32-.495-3.074-.495-5.261V18.424h-5.942v-1.238h5.942v-9.47a33.246 33.246 0 0 0 2.971-.247c.949-.124 1.816-.33 2.6-.62Zm15.877-5.2c1.073 0 2.001.393 2.785 1.177.784.784 1.176 1.712 1.176 2.785 0 1.073-.392 2.001-1.176 2.785-.784.784-1.712 1.176-2.785 1.176-1.073 0-2.002-.392-2.786-1.176-.784-.784-1.176-1.712-1.176-2.785 0-1.073.392-2.001 1.176-2.785.784-.784 1.713-1.176 2.786-1.176Zm3.218 14.793v26.8c0 1.734.351 2.91 1.052 3.529.743.619 1.96.928 3.652.928V49c-.701-.041-1.774-.083-3.218-.124a72.76 72.76 0 0 0-4.271-.124 75.35 75.35 0 0 0-4.271.124c-1.444.041-2.517.083-3.218.124v-1.3c1.691 0 2.888-.31 3.59-.928.742-.62 1.114-1.795 1.114-3.528V23.87c0-1.857-.33-3.219-.991-4.085-.66-.908-1.898-1.362-3.713-1.362v-1.3c1.32.124 2.599.186 3.837.186a29.66 29.66 0 0 0 3.404-.186 19.41 19.41 0 0 0 3.033-.68Zm33.05.681v1.238c-.784.083-1.506.433-2.166 1.052-.66.62-1.279 1.713-1.857 3.28L277.267 49.31h-1.052l-11.389-27.42c-.66-1.61-1.32-2.579-1.98-2.909-.619-.371-1.156-.557-1.61-.557v-1.3a56.55 56.55 0 0 1 2.538.186c.908.041 1.878.062 2.909.062 1.279 0 2.62-.02 4.023-.062 1.445-.041 2.786-.103 4.023-.186v1.3c-1.031 0-1.96.082-2.785.248-.784.123-1.3.515-1.547 1.176-.206.66 0 1.794.619 3.404l7.737 19.125-.372.31 7.056-18.507c.784-2.063.867-3.507.248-4.332-.578-.826-1.96-1.32-4.147-1.486v-1.238c1.073.042 1.96.083 2.661.124a46.23 46.23 0 0 0 2.538.062c.949 0 1.795-.02 2.538-.062.784-.041 1.506-.082 2.166-.124Zm13.398-.866c3.631 0 6.458 1.114 8.48 3.342 2.063 2.187 3.095 5.612 3.095 10.274h-21.849l-.062-1.175h15.969c.082-2.022-.083-3.88-.495-5.571-.413-1.733-1.073-3.115-1.981-4.147-.867-1.032-2.001-1.547-3.404-1.547-1.898 0-3.59.949-5.076 2.847-1.444 1.898-2.31 4.91-2.599 9.037l.185.247c-.082.619-.144 1.3-.185 2.043a40.42 40.42 0 0 0-.062 2.228c0 2.806.454 5.22 1.362 7.242.907 2.021 2.083 3.569 3.528 4.642 1.485 1.031 3.012 1.547 4.58 1.547 1.857 0 3.569-.454 5.137-1.362 1.568-.907 2.888-2.517 3.961-4.828l1.238.496c-.454 1.361-1.196 2.682-2.228 3.96-1.032 1.28-2.331 2.332-3.899 3.157-1.568.785-3.384 1.177-5.447 1.177-2.971 0-5.529-.681-7.675-2.043-2.104-1.362-3.734-3.24-4.89-5.632-1.114-2.435-1.671-5.22-1.671-8.356 0-3.631.578-6.747 1.733-9.346 1.156-2.641 2.785-4.663 4.89-6.066 2.104-1.444 4.559-2.166 7.365-2.166ZM106.136 58.173l12.945 33.37c.53 1.345 1.132 2.246 1.804 2.706.672.425 1.291.655 1.856.69V96a26.753 26.753 0 0 0-2.599-.106 89.198 89.198 0 0 0-3.077-.053c-1.38 0-2.67.018-3.873.053-1.203 0-2.175.035-2.918.106v-1.061c1.804-.07 2.953-.371 3.449-.902.495-.566.389-1.75-.319-3.555l-9.868-26.367.849-.69-9.23 23.98c-.744 1.91-1.097 3.413-1.062 4.51.035 1.061.442 1.821 1.22 2.281.778.46 1.91.708 3.396.743V96a44.02 44.02 0 0 0-3.13-.106 89.433 89.433 0 0 0-2.971-.053c-.885 0-1.645.018-2.282.053-.6 0-1.167.035-1.697.106v-1.061c.707-.177 1.432-.584 2.175-1.22.742-.672 1.415-1.804 2.016-3.396l12.467-32.15h.849Zm6.472 22.548v1.06h-15.81l.531-1.06h15.279Zm18.457 25.253c-1.875 0-3.643-.195-5.306-.584-1.662-.389-3.006-1.008-4.032-1.857-.99-.813-1.485-1.856-1.485-3.13 0-1.238.495-2.299 1.485-3.183.991-.884 2.335-1.556 4.032-2.016l.319.85c-.779.247-1.397.742-1.857 1.484-.46.743-.69 1.574-.69 2.494 0 1.627.743 2.865 2.228 3.714 1.521.884 3.484 1.326 5.889 1.326 1.592 0 3.148-.212 4.669-.637 1.521-.389 2.776-1.061 3.766-2.016.991-.955 1.486-2.21 1.486-3.766 0-1.168-.424-2.123-1.273-2.865-.814-.778-2.441-1.167-4.881-1.167h-3.926a19.98 19.98 0 0 1-3.289-.266c-1.061-.177-1.928-.548-2.6-1.114-.672-.566-1.008-1.432-1.008-2.6 0-1.202.495-2.351 1.486-3.448.99-1.132 2.811-2.281 5.464-3.448l.637.477c-1.203.637-2.246 1.291-3.13 1.963-.885.637-1.327 1.397-1.327 2.281 0 1.132.849 1.698 2.547 1.698h6.631c2.193 0 4.121.495 5.783 1.486 1.698.955 2.547 2.546 2.547 4.774 0 1.663-.531 3.219-1.592 4.669-1.061 1.45-2.653 2.617-4.775 3.502-2.086.919-4.686 1.379-7.798 1.379Zm.265-21.274c-2.617 0-4.828-.672-6.632-2.016-1.768-1.344-2.652-3.466-2.652-6.367 0-2.935.884-5.057 2.652-6.366 1.804-1.344 4.015-2.016 6.632-2.016s4.81.672 6.578 2.016c1.804 1.309 2.706 3.43 2.706 6.367 0 2.9-.902 5.022-2.706 6.366-1.768 1.344-3.961 2.016-6.578 2.016Zm0-.955c1.344 0 2.387-.53 3.13-1.592.778-1.06 1.167-3.006 1.167-5.836 0-2.829-.389-4.774-1.167-5.835-.743-1.061-1.786-1.592-3.13-1.592-1.309 0-2.352.53-3.13 1.592-.778 1.06-1.167 3.006-1.167 5.835 0 2.83.389 4.775 1.167 5.836s1.821 1.592 3.13 1.592Zm7.639-11.407-.955-.37c.496-1.203 1.344-2.264 2.547-3.184 1.202-.92 2.458-1.38 3.767-1.38.919 0 1.662.266 2.228.796.566.496.849 1.256.849 2.282 0 1.096-.301 1.874-.902 2.334-.566.424-1.15.637-1.751.637-.53 0-1.026-.177-1.485-.53-.46-.39-.725-.991-.796-1.805-.071-.813.177-1.856.743-3.13l.689.16c-1.485.565-2.546 1.166-3.183 1.803-.637.601-1.22 1.397-1.751 2.388Zm20.084-4.403c3.112 0 5.535.955 7.268 2.865 1.768 1.874 2.653 4.81 2.653 8.807h-18.728l-.053-1.008h13.687c.071-1.733-.07-3.325-.424-4.775-.354-1.486-.92-2.67-1.698-3.555-.742-.884-1.715-1.326-2.918-1.326-1.626 0-3.077.814-4.35 2.44-1.238 1.627-1.98 4.21-2.228 7.746l.159.212a22.63 22.63 0 0 0-.159 1.751 34.787 34.787 0 0 0-.053 1.91c0 2.405.389 4.474 1.167 6.207.778 1.733 1.786 3.06 3.024 3.98 1.273.883 2.582 1.326 3.926 1.326 1.592 0 3.059-.39 4.403-1.168 1.344-.778 2.476-2.157 3.396-4.138l1.061.425c-.389 1.167-1.026 2.299-1.91 3.395-.884 1.097-1.998 1.998-3.342 2.706-1.344.672-2.901 1.008-4.669 1.008-2.547 0-4.739-.584-6.579-1.751-1.803-1.167-3.2-2.776-4.191-4.828-.955-2.087-1.432-4.474-1.432-7.162 0-3.112.495-5.783 1.485-8.01.991-2.264 2.388-3.998 4.191-5.2 1.804-1.238 3.909-1.857 6.314-1.857Zm29.118 0c1.344 0 2.458.177 3.342.53.92.354 1.68.85 2.282 1.486.672.708 1.149 1.592 1.432 2.653.283 1.06.425 2.493.425 4.297v14.165c0 1.486.3 2.494.901 3.024.637.53 1.68.796 3.131.796V96a100.88 100.88 0 0 0-2.759-.106 63.323 63.323 0 0 0-3.608-.106 55.3 55.3 0 0 0-3.448.106c-1.097.035-1.928.07-2.494.106v-1.114c1.274 0 2.175-.265 2.706-.796.531-.53.796-1.538.796-3.024V75.734a16.11 16.11 0 0 0-.265-3.024c-.177-.92-.584-1.662-1.221-2.228-.601-.566-1.538-.85-2.811-.85-2.229 0-4.032.938-5.412 2.813-1.344 1.839-2.016 4.12-2.016 6.843v11.778c0 1.486.265 2.494.796 3.024.53.53 1.432.796 2.706.796V96a89.412 89.412 0 0 0-2.547-.106 52.768 52.768 0 0 0-3.395-.106c-1.167 0-2.37.035-3.608.106-1.238.035-2.157.07-2.759.106v-1.114c1.451 0 2.476-.265 3.077-.796.637-.53.955-1.538.955-3.024V74.461c0-1.592-.283-2.76-.848-3.502-.566-.778-1.627-1.167-3.184-1.167v-1.114c1.132.106 2.229.16 3.29.16 1.025 0 1.998-.054 2.918-.16a16.618 16.618 0 0 0 2.599-.584v6.26c.92-2.404 2.193-4.067 3.82-4.986 1.662-.955 3.395-1.433 5.199-1.433Zm24.44 0c1.132 0 2.229.142 3.29.425a9.55 9.55 0 0 1 2.864 1.273c.814.53 1.433 1.15 1.857 1.857.425.672.637 1.414.637 2.228 0 .955-.265 1.698-.796 2.228-.53.495-1.202.743-2.016.743-.778 0-1.468-.23-2.069-.69-.566-.46-.849-1.114-.849-1.963 0-.813.212-1.468.637-1.963.46-.495.99-.813 1.591-.955-.353-.636-.99-1.167-1.909-1.591a6.54 6.54 0 0 0-2.865-.637c-.884 0-1.769.212-2.653.637-.884.424-1.698 1.132-2.44 2.122-.743.955-1.344 2.281-1.804 3.979-.46 1.662-.69 3.749-.69 6.26 0 3.112.354 5.588 1.061 7.427.708 1.84 1.627 3.166 2.759 3.98a6.746 6.746 0 0 0 3.82 1.166c1.379 0 2.776-.406 4.191-1.22 1.415-.813 2.582-2.228 3.501-4.244l1.008.371c-.353 1.132-.937 2.282-1.75 3.449-.814 1.132-1.875 2.069-3.183 2.812-1.309.742-2.918 1.114-4.828 1.114-2.193 0-4.174-.566-5.942-1.698-1.769-1.132-3.183-2.741-4.244-4.828-1.026-2.122-1.539-4.633-1.539-7.533 0-2.9.513-5.447 1.539-7.64 1.061-2.228 2.528-3.961 4.403-5.199 1.875-1.273 4.014-1.91 6.419-1.91Zm34.555.743v1.06c-.672.072-1.291.372-1.857.903-.566.53-1.096 1.468-1.591 2.812l-8.701 22.812h-.902l-9.762-23.502c-.672-1.38-1.344-2.21-2.016-2.494-.636-.318-1.167-.477-1.591-.477v-1.114a46.94 46.94 0 0 0 2.44.265c.849.035 1.769.053 2.759.053 1.096 0 2.246-.035 3.448-.106 1.238-.07 2.388-.141 3.449-.212v1.114c-.884 0-1.68.07-2.388.212-.672.106-1.096.478-1.273 1.114-.177.602.036 1.645.637 3.13l6.525 16.181-.318.107 6.048-15.81c.672-1.769.743-3.006.212-3.714-.53-.707-1.733-1.132-3.607-1.273v-1.061c.919.035 1.68.07 2.281.106.637.035 1.362.053 2.175.053.814 0 1.539-.018 2.175-.053.672-.035 1.291-.07 1.857-.106Zm-12.149 27.587-1.804 4.616c-.672 1.733-1.432 2.971-2.281 3.714a4.285 4.285 0 0 1-2.016 1.061c-.778.212-1.486.318-2.122.318a4.593 4.593 0 0 1-1.857-.371 2.981 2.981 0 0 1-1.273-1.115c-.319-.459-.478-1.025-.478-1.697 0-.849.248-1.539.743-2.069.495-.495 1.185-.743 2.069-.743.743 0 1.379.212 1.91.637.53.424.796 1.043.796 1.856 0 .602-.142 1.097-.425 1.486-.283.389-.619.69-1.008.902a.416.416 0 0 0 .159.053h.16c.955 0 1.803-.336 2.546-1.008.743-.637 1.397-1.68 1.963-3.13l1.91-4.934 1.008.424Zm51.639-15.597v2.122h-39.471v-2.122h39.471Z"/></svg>