<svg xmlns="http://www.w3.org/2000/svg" viewBox="0 0 256 256" focusable="false" color="var(--token-52da4e30-e37a-4629-92ea-929c1ac3ceb3, rgb(51, 51, 54))" style="user-select: none; width: 100%; height: 100%; display: inline-block; fill: var(--token-52da4e30-e37a-4629-92ea-929c1ac3ceb3, rgb(51, 51, 54)); color: var(--token-52da4e30-e37a-4629-92ea-929c1ac3ceb3, rgb(51, 51, 54)); flex-shrink: 0;"><g color="var(--token-52da4e30-e37a-4629-92ea-929c1ac3ceb3, rgb(51, 51, 54))" weight="duotone"><path d="M176,80v96H80V80Z" opacity="0.2"></path><path d="M224,40V80a8,8,0,0,1-16,0V48H176a8,8,0,0,1,0-16h40A8,8,0,0,1,224,40ZM80,208H48V176a8,8,0,0,0-16,0v40a8,8,0,0,0,8,8H80a8,8,0,0,0,0-16Zm136-40a8,8,0,0,0-8,8v32H176a8,8,0,0,0,0,16h40a8,8,0,0,0,8-8V176A8,8,0,0,0,216,168ZM40,88a8,8,0,0,0,8-8V48H80a8,8,0,0,0,0-16H40a8,8,0,0,0-8,8V80A8,8,0,0,0,40,88ZM80,72h96a8,8,0,0,1,8,8v96a8,8,0,0,1-8,8H80a8,8,0,0,1-8-8V80A8,8,0,0,1,80,72Zm8,96h80V88H88Z"></path></g></svg>