<svg xmlns="http://www.w3.org/2000/svg" width="164" height="42" fill="none"><path fill="#DEDEE2" d="M41.93 25.8v-7.387c0-.96.327-1.755 1-2.429.674-.673 1.49-1 2.45-1h2.897c.96 0 1.755.327 2.428 1 .674.674 1.02 1.47 1.02 2.429V25.8a3.39 3.39 0 0 1-1.02 2.47c-.673.673-1.469 1-2.428 1h-2.898c-.959 0-1.775-.348-2.449-1.021-.673-.673-1-1.49-1-2.449Zm6.347-9.183h-2.898c-.98 0-1.816.816-1.816 1.796V25.8c0 1 .837 1.837 1.816 1.837h2.898c1 0 1.816-.837 1.816-1.837v-7.387c0-.98-.816-1.796-1.816-1.796Zm15.083 1.816v1.061c0 .96-.327 1.776-1 2.45-.674.673-1.49 1-2.45 1h-2.632l5.96 6.325h-2.082l-5.96-6.326v6.326h-1.632V14.984h6.347c.959 0 1.755.347 2.428 1.02.674.674 1.02 1.47 1.02 2.43Zm-1.633 1.061v-1.06c0-1-.816-1.817-1.816-1.817h-4.714v4.694h4.714c1 0 1.816-.817 1.816-1.817Zm13.266 5.286v1.04c0 .96-.326 1.776-1 2.45-.673.673-1.49 1-2.449 1h-6.346V14.983h6.346c.96 0 1.755.327 2.429 1 .673.674 1.02 1.47 1.02 2.429v1.06c0 .98-.408 1.858-1.224 2.654.816.816 1.224 1.694 1.224 2.653Zm-1.632 1.04v-1.04c0-1-.817-1.837-1.817-1.837H66.83v4.694h4.714c1 0 1.817-.817 1.817-1.816Zm0-6.346v-1.061c0-.98-.817-1.796-1.817-1.796H66.83v4.694h4.714c1 0 1.817-.837 1.817-1.837Zm13.266 8.163v1.632h-9.795v-1.632h4.08v-11.02h-4.08v-1.633h9.795v1.633h-4.081v11.02h4.08ZM98.26 14.984v3.266h-1.632v-1.633h-2.449v12.652h-1.632V16.617h-2.45v1.633h-1.632v-3.266h9.796Zm17.554 14.286-.939-3.266h-4.673l-.918 3.265h-1.633l4.082-14.285h1.632l4.082 14.285h-1.633Zm-3.265-11.429-1.878 6.53h3.735l-1.857-6.53Zm8.368-2.857.511 8.265 1.938-8.265h1.633l1.938 8.265.511-8.265h1.632c-.224 3.408-.571 8.163-1.02 14.285h-1.612l-2.266-11.55-2.265 11.55h-1.612c-.224-3.408-.571-8.162-1.02-14.285h1.632Zm18.164 14.286-.938-3.266h-4.674l-.918 3.265h-1.633L135 14.984h1.632l4.082 14.285h-1.633Zm-3.265-11.429-1.877 6.53h3.734l-1.857-6.53Zm16.532.592v1.061c0 .96-.327 1.776-1 2.45-.674.673-1.49 1-2.449 1h-2.633l5.959 6.325h-2.081l-5.959-6.326v6.326h-1.633V14.984h6.347c.959 0 1.755.347 2.428 1.02.674.674 1.021 1.47 1.021 2.43Zm-1.633 1.061v-1.06c0-1-.816-1.817-1.816-1.817h-4.714v4.694h4.714c1 0 1.816-.817 1.816-1.817Zm3.471 9.776V14.983h6.346c.96 0 1.755.327 2.429 1 .673.674 1.02 1.47 1.02 2.429V25.8c0 .96-.347 1.796-1.02 2.47-.674.673-1.469 1-2.429 1h-6.346Zm6.346-12.653h-4.714v11.02h4.714c1 0 1.817-.837 1.817-1.837v-7.387c0-.98-.817-1.796-1.817-1.796Z"/><path fill="#D9D9D9" fill-rule="evenodd" d="M16.421 37.432c9.017 0 16.326-7.309 16.326-16.326 0-9.016-7.31-16.325-16.326-16.325C7.405 4.78.096 12.09.096 21.107c0 9.016 7.309 16.325 16.325 16.325ZM9.28 21.106a5.102 5.102 0 1 0 0-10.203 5.102 5.102 0 0 0 0 10.204Z" clip-rule="evenodd"/></svg>