<svg xmlns="http://www.w3.org/2000/svg" width="26" height="21" fill="none"><path fill="silver" d="M6.58 20.16c-1.173 0-2.133-.24-2.88-.72a6.055 6.055 0 0 1-1.84-1.84 6.74 6.74 0 0 1-1.12-2.8C.58 13.787.5 12.96.5 12.32c0-2.613.667-4.987 2-7.12S5.913 1.333 8.74 0l.72 1.44c-1.653.693-3.093 1.787-4.32 3.28-1.173 1.493-1.76 3.013-1.76 4.56 0 .64.08 1.2.24 1.68.853-.693 1.84-1.04 2.96-1.04 1.387 0 2.587.453 3.6 1.36s1.52 2.16 1.52 3.76c0 1.493-.507 2.72-1.52 3.68s-2.213 1.44-3.6 1.44Zm13.6 0c-1.173 0-2.133-.24-2.88-.72a6.055 6.055 0 0 1-1.84-1.84 6.74 6.74 0 0 1-1.12-2.8c-.16-1.013-.24-1.84-.24-2.48 0-2.613.667-4.987 2-7.12s3.413-3.867 6.24-5.2l.72 1.44c-1.653.693-3.093 1.787-4.32 3.28-1.173 1.493-1.76 3.013-1.76 4.56 0 .64.08 1.2.24 1.68.853-.693 1.84-1.04 2.96-1.04 1.387 0 2.587.453 3.6 1.36s1.52 2.16 1.52 3.76c0 1.493-.507 2.72-1.52 3.68s-2.213 1.44-3.6 1.44Z"/></svg>