<svg xmlns="http://www.w3.org/2000/svg" width="352" height="109" fill="none"><path fill="#fff" d="M34.52 4.52c-.16 1.52-.28 3-.36 4.44-.04 1.4-.06 2.48-.06 3.24 0 .96.02 1.86.06 2.7.04.84.08 1.58.12 2.22H32.9c-.28-2.8-.66-5-1.14-6.6-.48-1.64-1.32-2.82-2.52-3.54-1.2-.72-3.06-1.08-5.58-1.08h-3.24v34.14c0 1.6.14 2.8.42 3.6.32.8.92 1.34 1.8 1.62s2.16.46 3.84.54V47c-1.04-.08-2.36-.12-3.96-.12a204.583 204.583 0 0 0-9.96 0c-1.56 0-2.82.04-3.78.12v-1.2c1.68-.08 2.96-.26 3.84-.54.88-.28 1.46-.82 1.74-1.62.32-.8.48-2 .48-3.6V5.9H11.6c-2.48 0-4.34.36-5.58 1.08-1.2.72-2.04 1.9-2.52 3.54-.48 1.6-.86 3.8-1.14 6.6H.98c.08-.64.12-1.38.12-2.22.04-.84.06-1.74.06-2.7 0-.76-.04-1.84-.12-3.24C1 7.52.9 6.04.74 4.52c1.68.04 3.5.08 5.46.12 2 .04 4 .06 6 .06h10.86c2 0 4-.02 6-.06 2-.04 3.82-.08 5.46-.12Zm9.554-4.5v22.44c1.04-2.72 2.48-4.6 4.32-5.64 1.88-1.04 3.84-1.56 5.88-1.56 1.52 0 2.78.2 3.78.6 1.04.4 1.9.96 2.58 1.68.76.8 1.3 1.8 1.62 3 .32 1.2.48 2.82.48 4.86v16.02c0 1.68.34 2.82 1.02 3.42.72.6 1.9.9 3.54.9V47c-.68-.04-1.72-.08-3.12-.12-1.4-.08-2.76-.12-4.08-.12-1.32 0-2.62.04-3.9.12-1.24.04-2.18.08-2.82.12v-1.26c1.44 0 2.46-.3 3.06-.9.6-.6.9-1.74.9-3.42V24.08c0-1.24-.1-2.38-.3-3.42-.2-1.04-.66-1.88-1.38-2.52-.68-.64-1.74-.96-3.18-.96-2.44 0-4.46 1.02-6.06 3.06-1.56 2-2.34 4.6-2.34 7.8v13.38c0 1.68.3 2.82.9 3.42.6.6 1.62.9 3.06.9V47c-.64-.04-1.6-.08-2.88-.12-1.24-.08-2.52-.12-3.84-.12-1.32 0-2.68.04-4.08.12-1.4.04-2.44.08-3.12.12v-1.26c1.64 0 2.8-.3 3.48-.9.72-.6 1.08-1.74 1.08-3.42V7.22c0-1.8-.32-3.12-.96-3.96-.64-.88-1.84-1.32-3.6-1.32V.68c1.28.12 2.52.18 3.72.18 1.16 0 2.26-.06 3.3-.18 1.08-.16 2.06-.38 2.94-.66Zm37.433 15.24c3.52 0 6.26 1.08 8.22 3.24 2 2.12 3 5.44 3 9.96h-21.18l-.06-1.14h15.48c.08-1.96-.08-3.76-.48-5.4-.4-1.68-1.04-3.02-1.92-4.02-.84-1-1.94-1.5-3.3-1.5-1.84 0-3.48.92-4.92 2.76-1.4 1.84-2.24 4.76-2.52 8.76l.18.24c-.08.6-.14 1.26-.18 1.98-.04.72-.06 1.44-.06 2.16 0 2.72.44 5.06 1.32 7.02.88 1.96 2.02 3.46 3.42 4.5 1.44 1 2.92 1.5 4.44 1.5 1.8 0 3.46-.44 4.98-1.32 1.52-.88 2.8-2.44 3.84-4.68l1.2.48c-.44 1.32-1.16 2.6-2.16 3.84-1 1.24-2.26 2.26-3.78 3.06-1.52.76-3.28 1.14-5.28 1.14-2.88 0-5.36-.66-7.44-1.98-2.04-1.32-3.62-3.14-4.74-5.46-1.08-2.36-1.62-5.06-1.62-8.1 0-3.52.56-6.54 1.68-9.06 1.12-2.56 2.7-4.52 4.74-5.88 2.04-1.4 4.42-2.1 7.14-2.1ZM126.74 3.68c2.64 0 4.8.4 6.48 1.2 1.72.76 3.24 1.66 4.56 2.7.8.6 1.4.68 1.8.24.44-.48.74-1.58.9-3.3h1.38c-.08 1.48-.14 3.28-.18 5.4-.04 2.12-.06 4.92-.06 8.4h-1.38c-.28-1.72-.54-3.08-.78-4.08-.24-1.04-.54-1.92-.9-2.64-.32-.72-.76-1.44-1.32-2.16-1.24-1.64-2.8-2.82-4.68-3.54-1.88-.76-3.86-1.14-5.94-1.14-1.96 0-3.74.5-5.34 1.5-1.56.96-2.92 2.36-4.08 4.2-1.12 1.84-2 4.06-2.64 6.66-.6 2.6-.9 5.52-.9 8.76 0 3.36.34 6.34 1.02 8.94.68 2.56 1.62 4.72 2.82 6.48 1.24 1.76 2.68 3.1 4.32 4.02 1.68.88 3.48 1.32 5.4 1.32 1.8 0 3.68-.36 5.64-1.08 1.96-.72 3.5-1.88 4.62-3.48a9.986 9.986 0 0 0 1.8-3.78c.36-1.36.68-3.26.96-5.7h1.38c0 3.64.02 6.58.06 8.82.04 2.2.1 4.06.18 5.58h-1.38c-.16-1.72-.44-2.8-.84-3.24-.36-.44-.98-.38-1.86.18a32.612 32.612 0 0 1-4.74 2.76c-1.64.76-3.76 1.14-6.36 1.14-3.8 0-7.14-.86-10.02-2.58-2.84-1.72-5.06-4.2-6.66-7.44-1.56-3.24-2.34-7.14-2.34-11.7 0-4.48.82-8.4 2.46-11.76 1.64-3.36 3.88-5.98 6.72-7.86 2.88-1.88 6.18-2.82 9.9-2.82Zm36.449 11.58c1.08 0 2.02.22 2.82.66.84.44 1.48 1.02 1.92 1.74.48.68.72 1.46.72 2.34 0 1-.32 1.88-.96 2.64-.6.76-1.42 1.14-2.46 1.14-.84 0-1.58-.26-2.22-.78-.64-.56-.96-1.34-.96-2.34 0-.76.2-1.4.6-1.92.44-.56.92-1 1.44-1.32-.28-.4-.7-.6-1.26-.6-1.68 0-3.14.64-4.38 1.92-1.24 1.24-2.22 2.74-2.94 4.5-.68 1.76-1.02 3.38-1.02 4.86v12.72c0 1.96.56 3.28 1.68 3.96 1.16.64 2.72.96 4.68.96V47c-.92-.04-2.22-.08-3.9-.12-1.68-.08-3.46-.12-5.34-.12-1.36 0-2.72.04-4.08.12-1.32.04-2.32.08-3 .12v-1.26c1.64 0 2.8-.3 3.48-.9.72-.6 1.08-1.74 1.08-3.42V22.64c0-1.8-.32-3.12-.96-3.96-.64-.88-1.84-1.32-3.6-1.32V16.1c1.28.12 2.52.18 3.72.18 1.16 0 2.26-.06 3.3-.18 1.08-.16 2.06-.38 2.94-.66v7.5c.44-1.16 1.06-2.32 1.86-3.48.84-1.2 1.84-2.2 3-3 1.16-.8 2.44-1.2 3.84-1.2Zm18.467 0c3.52 0 6.26 1.08 8.22 3.24 2 2.12 3 5.44 3 9.96h-21.18l-.06-1.14h15.48c.08-1.96-.08-3.76-.48-5.4-.4-1.68-1.04-3.02-1.92-4.02-.84-1-1.94-1.5-3.3-1.5-1.84 0-3.48.92-4.92 2.76-1.4 1.84-2.24 4.76-2.52 8.76l.18.24c-.08.6-.14 1.26-.18 1.98-.04.72-.06 1.44-.06 2.16 0 2.72.44 5.06 1.32 7.02.88 1.96 2.02 3.46 3.42 4.5 1.44 1 2.92 1.5 4.44 1.5 1.8 0 3.46-.44 4.98-1.32 1.52-.88 2.8-2.44 3.84-4.68l1.2.48c-.44 1.32-1.16 2.6-2.16 3.84-1 1.24-2.26 2.26-3.78 3.06-1.52.76-3.28 1.14-5.28 1.14-2.88 0-5.36-.66-7.44-1.98-2.04-1.32-3.62-3.14-4.74-5.46-1.08-2.36-1.62-5.06-1.62-8.1 0-3.52.56-6.54 1.68-9.06 1.12-2.56 2.7-4.52 4.74-5.88 2.04-1.4 4.42-2.1 7.14-2.1Zm20.812 32.16c-2.6 0-4.5-.64-5.7-1.92-1.16-1.32-1.74-3.06-1.74-5.22 0-1.68.4-3.06 1.2-4.14.84-1.12 1.9-2.02 3.18-2.7 1.28-.72 2.62-1.32 4.02-1.8 1.44-.52 2.8-1.02 4.08-1.5 1.28-.48 2.32-1.02 3.12-1.62.84-.6 1.26-1.36 1.26-2.28v-3.72c0-1.68-.26-2.96-.78-3.84-.48-.88-1.14-1.46-1.98-1.74-.84-.32-1.78-.48-2.82-.48-1 0-2.08.14-3.24.42-1.12.28-2.02.86-2.7 1.74.76.16 1.42.56 1.98 1.2.56.64.84 1.46.84 2.46s-.32 1.8-.96 2.4c-.64.56-1.46.84-2.46.84-1.16 0-2.02-.36-2.58-1.08-.52-.76-.78-1.6-.78-2.52 0-1.04.26-1.88.78-2.52.52-.64 1.18-1.24 1.98-1.8.92-.64 2.1-1.18 3.54-1.62 1.48-.48 3.14-.72 4.98-.72 1.64 0 3.04.2 4.2.6 1.16.36 2.12.9 2.88 1.62 1.04.96 1.72 2.14 2.04 3.54.32 1.36.48 3 .48 4.92v16.68c0 .96.14 1.68.42 2.16.28.44.76.66 1.44.66.56 0 1.04-.12 1.44-.36.44-.24.86-.54 1.26-.9l.66 1.02c-.84.64-1.64 1.18-2.4 1.62-.76.4-1.78.6-3.06.6-2.08 0-3.46-.54-4.14-1.62-.68-1.08-1.02-2.32-1.02-3.72-1.28 2.12-2.74 3.54-4.38 4.26-1.6.72-3.28 1.08-5.04 1.08Zm2.64-2.4c1.2 0 2.38-.34 3.54-1.02 1.16-.72 2.24-1.9 3.24-3.54V28.7c-.6.88-1.54 1.58-2.82 2.1-1.24.52-2.54 1.1-3.9 1.74-1.32.6-2.46 1.44-3.42 2.52-.96 1.04-1.44 2.54-1.44 4.5 0 1.84.46 3.22 1.38 4.14.92.88 2.06 1.32 3.42 1.32ZM230.97 6.14v10.02h8.88v1.2h-8.88v23.22c0 1.88.34 3.2 1.02 3.96.68.76 1.62 1.14 2.82 1.14 1.2 0 2.24-.48 3.12-1.44.88-1 1.64-2.66 2.28-4.98l1.2.3c-.4 2.32-1.2 4.28-2.4 5.88-1.16 1.6-2.96 2.4-5.4 2.4-1.36 0-2.48-.18-3.36-.54a6.74 6.74 0 0 1-2.34-1.44c-.88-.92-1.5-2.02-1.86-3.3-.32-1.28-.48-2.98-.48-5.1v-20.1h-5.76v-1.2h5.76V6.98c1-.04 1.96-.12 2.88-.24.92-.12 1.76-.32 2.52-.6Zm15.391-5.04c1.04 0 1.94.38 2.7 1.14.76.76 1.14 1.66 1.14 2.7 0 1.04-.38 1.94-1.14 2.7-.76.76-1.66 1.14-2.7 1.14-1.04 0-1.94-.38-2.7-1.14-.76-.76-1.14-1.66-1.14-2.7 0-1.04.38-1.94 1.14-2.7.76-.76 1.66-1.14 2.7-1.14Zm3.12 14.34v25.98c0 1.68.34 2.82 1.02 3.42.72.6 1.9.9 3.54.9V47c-.68-.04-1.72-.08-3.12-.12-1.36-.08-2.74-.12-4.14-.12-1.36 0-2.74.04-4.14.12-1.4.04-2.44.08-3.12.12v-1.26c1.64 0 2.8-.3 3.48-.9.72-.6 1.08-1.74 1.08-3.42V22.64c0-1.8-.32-3.12-.96-3.96-.64-.88-1.84-1.32-3.6-1.32V16.1c1.28.12 2.52.18 3.72.18 1.16 0 2.26-.06 3.3-.18 1.08-.16 2.06-.38 2.94-.66Zm32.038.66v1.2c-.76.08-1.46.42-2.1 1.02-.64.6-1.24 1.66-1.8 3.18l-9.84 25.8h-1.02l-11.04-26.58c-.64-1.56-1.28-2.5-1.92-2.82-.6-.36-1.12-.54-1.56-.54V16.1c.8.04 1.62.1 2.46.18.88.04 1.82.06 2.82.06 1.24 0 2.54-.02 3.9-.06 1.4-.04 2.7-.1 3.9-.18v1.26c-1 0-1.9.08-2.7.24-.76.12-1.26.5-1.5 1.14-.2.64 0 1.74.6 3.3l7.5 18.54-.36.3 6.84-17.94c.76-2 .84-3.4.24-4.2-.56-.8-1.9-1.28-4.02-1.44v-1.2c1.04.04 1.9.08 2.58.12.72.04 1.54.06 2.46.06.92 0 1.74-.02 2.46-.06.76-.04 1.46-.08 2.1-.12Zm12.989-.84c3.52 0 6.26 1.08 8.22 3.24 2 2.12 3 5.44 3 9.96h-21.18l-.06-1.14h15.48c.08-1.96-.08-3.76-.48-5.4-.4-1.68-1.04-3.02-1.92-4.02-.84-1-1.94-1.5-3.3-1.5-1.84 0-3.48.92-4.92 2.76-1.4 1.84-2.24 4.76-2.52 8.76l.179.24c-.079.6-.139 1.26-.179 1.98-.04.72-.06 1.44-.06 2.16 0 2.72.44 5.06 1.32 7.02.88 1.96 2.02 3.46 3.42 4.5 1.44 1 2.92 1.5 4.44 1.5 1.8 0 3.46-.44 4.98-1.32 1.52-.88 2.8-2.44 3.84-4.68l1.2.48c-.44 1.32-1.16 2.6-2.16 3.84-1 1.24-2.26 2.26-3.78 3.06-1.52.76-3.28 1.14-5.28 1.14-2.88 0-5.36-.66-7.44-1.98-2.04-1.32-3.62-3.14-4.74-5.46-1.08-2.36-1.62-5.06-1.62-8.1 0-3.52.56-6.54 1.68-9.06 1.12-2.56 2.7-4.52 4.74-5.88 2.04-1.4 4.42-2.1 7.14-2.1ZM147.685 54.22l14.64 37.74c.6 1.52 1.28 2.54 2.04 3.06.76.48 1.46.74 2.1.78V97c-.8-.08-1.78-.12-2.94-.12-1.16-.04-2.32-.06-3.48-.06-1.56 0-3.02.02-4.38.06-1.36 0-2.46.04-3.3.12v-1.2c2.04-.08 3.34-.42 3.9-1.02.56-.64.44-1.98-.36-4.02l-11.16-29.82.96-.78-10.44 27.12c-.84 2.16-1.24 3.86-1.2 5.1.04 1.2.5 2.06 1.38 2.58.88.52 2.16.8 3.84.84V97c-1.12-.08-2.3-.12-3.54-.12-1.2-.04-2.32-.06-3.36-.06-1 0-1.86.02-2.58.06-.68 0-1.32.04-1.92.12v-1.2c.8-.2 1.62-.66 2.46-1.38.84-.76 1.6-2.04 2.28-3.84l14.1-36.36h.96Zm7.32 25.5v1.2h-17.88l.6-1.2h17.28Zm20.873 28.56c-2.12 0-4.12-.22-6-.66-1.88-.44-3.4-1.14-4.56-2.1-1.12-.92-1.68-2.1-1.68-3.54 0-1.4.56-2.6 1.68-3.6 1.12-1 2.64-1.76 4.56-2.28l.36.96c-.88.28-1.58.84-2.1 1.68s-.78 1.78-.78 2.82c0 1.84.84 3.24 2.52 4.2 1.72 1 3.94 1.5 6.66 1.5 1.8 0 3.56-.24 5.28-.72 1.72-.44 3.14-1.2 4.26-2.28 1.12-1.08 1.68-2.5 1.68-4.26 0-1.32-.48-2.4-1.44-3.24-.92-.88-2.76-1.32-5.52-1.32h-4.44c-1.28 0-2.52-.1-3.72-.3-1.2-.2-2.18-.62-2.94-1.26-.76-.64-1.14-1.62-1.14-2.94 0-1.36.56-2.66 1.68-3.9 1.12-1.28 3.18-2.58 6.18-3.9l.72.54c-1.36.72-2.54 1.46-3.54 2.22-1 .72-1.5 1.58-1.5 2.58 0 1.28.96 1.92 2.88 1.92h7.5c2.48 0 4.66.56 6.54 1.68 1.92 1.08 2.88 2.88 2.88 5.4 0 1.88-.6 3.64-1.8 5.28-1.2 1.64-3 2.96-5.4 3.96-2.36 1.04-5.3 1.56-8.82 1.56Zm.3-24.06c-2.96 0-5.46-.76-7.5-2.28-2-1.52-3-3.92-3-7.2 0-3.32 1-5.72 3-7.2 2.04-1.52 4.54-2.28 7.5-2.28s5.44.76 7.44 2.28c2.04 1.48 3.06 3.88 3.06 7.2 0 3.28-1.02 5.68-3.06 7.2-2 1.52-4.48 2.28-7.44 2.28Zm0-1.08c1.52 0 2.7-.6 3.54-1.8.88-1.2 1.32-3.4 1.32-6.6 0-3.2-.44-5.4-1.32-6.6-.84-1.2-2.02-1.8-3.54-1.8-1.48 0-2.66.6-3.54 1.8-.88 1.2-1.32 3.4-1.32 6.6 0 3.2.44 5.4 1.32 6.6.88 1.2 2.06 1.8 3.54 1.8Zm8.64-12.9-1.08-.42c.56-1.36 1.52-2.56 2.88-3.6 1.36-1.04 2.78-1.56 4.26-1.56 1.04 0 1.88.3 2.52.9.64.56.96 1.42.96 2.58 0 1.24-.34 2.12-1.02 2.64-.64.48-1.3.72-1.98.72-.6 0-1.16-.2-1.68-.6-.52-.44-.82-1.12-.9-2.04-.08-.92.2-2.1.84-3.54l.78.18c-1.68.64-2.88 1.32-3.6 2.04-.72.68-1.38 1.58-1.98 2.7Zm22.713-4.98c3.52 0 6.26 1.08 8.22 3.24 2 2.12 3 5.44 3 9.96h-21.18l-.06-1.14h15.48c.08-1.96-.08-3.76-.48-5.4-.4-1.68-1.04-3.02-1.92-4.02-.84-1-1.94-1.5-3.3-1.5-1.84 0-3.48.92-4.92 2.76-1.4 1.84-2.24 4.76-2.52 8.76l.18.24c-.08.6-.14 1.26-.18 1.98-.04.72-.06 1.44-.06 2.16 0 2.72.44 5.06 1.32 7.02.88 1.96 2.02 3.46 3.42 4.5 1.44 1 2.92 1.5 4.44 1.5 1.8 0 3.46-.44 4.98-1.32 1.52-.88 2.8-2.44 3.84-4.68l1.2.48c-.44 1.32-1.16 2.6-2.16 3.84-1 1.24-2.26 2.26-3.78 3.06-1.52.76-3.28 1.14-5.28 1.14-2.88 0-5.36-.66-7.44-1.98-2.04-1.32-3.62-3.14-4.74-5.46-1.08-2.36-1.62-5.06-1.62-8.1 0-3.52.56-6.54 1.68-9.06 1.12-2.56 2.7-4.52 4.74-5.88 2.04-1.4 4.42-2.1 7.14-2.1Zm32.932 0c1.52 0 2.78.2 3.78.6 1.04.4 1.9.96 2.58 1.68.76.8 1.3 1.8 1.62 3 .32 1.2.48 2.82.48 4.86v16.02c0 1.68.34 2.82 1.02 3.42.72.6 1.9.9 3.54.9V97c-.68-.04-1.72-.08-3.12-.12-1.4-.08-2.76-.12-4.08-.12-1.32 0-2.62.04-3.9.12-1.24.04-2.18.08-2.82.12v-1.26c1.44 0 2.46-.3 3.06-.9.6-.6.9-1.74.9-3.42V74.08c0-1.24-.1-2.38-.3-3.42-.2-1.04-.66-1.88-1.38-2.52-.68-.64-1.74-.96-3.18-.96-2.52 0-4.56 1.06-6.12 3.18-1.52 2.08-2.28 4.66-2.28 7.74v13.32c0 1.68.3 2.82.9 3.42.6.6 1.62.9 3.06.9V97c-.64-.04-1.6-.08-2.88-.12-1.24-.08-2.52-.12-3.84-.12-1.32 0-2.68.04-4.08.12-1.4.04-2.44.08-3.12.12v-1.26c1.64 0 2.8-.3 3.48-.9.72-.6 1.08-1.74 1.08-3.42V72.64c0-1.8-.32-3.12-.96-3.96-.64-.88-1.84-1.32-3.6-1.32V66.1c1.28.12 2.52.18 3.72.18 1.16 0 2.26-.06 3.3-.18 1.08-.16 2.06-.38 2.94-.66v7.08c1.04-2.72 2.48-4.6 4.32-5.64 1.88-1.08 3.84-1.62 5.88-1.62Zm27.64 0c1.28 0 2.52.16 3.72.48 1.2.32 2.28.8 3.24 1.44.92.6 1.62 1.3 2.1 2.1.48.76.72 1.6.72 2.52 0 1.08-.3 1.92-.9 2.52-.6.56-1.36.84-2.28.84-.88 0-1.66-.26-2.34-.78-.64-.52-.96-1.26-.96-2.22 0-.92.24-1.66.72-2.22.52-.56 1.12-.92 1.8-1.08-.4-.72-1.12-1.32-2.16-1.8-1-.48-2.08-.72-3.24-.72-1 0-2 .24-3 .72s-1.92 1.28-2.76 2.4c-.84 1.08-1.52 2.58-2.04 4.5-.52 1.88-.78 4.24-.78 7.08 0 3.52.4 6.32 1.2 8.4.8 2.08 1.84 3.58 3.12 4.5 1.32.88 2.76 1.32 4.32 1.32 1.56 0 3.14-.46 4.74-1.38 1.6-.92 2.92-2.52 3.96-4.8l1.14.42c-.4 1.28-1.06 2.58-1.98 3.9-.92 1.28-2.12 2.34-3.6 3.18-1.48.84-3.3 1.26-5.46 1.26-2.48 0-4.72-.64-6.72-1.92-2-1.28-3.6-3.1-4.8-5.46-1.16-2.4-1.74-5.24-1.74-8.52 0-3.28.58-6.16 1.74-8.64 1.2-2.52 2.86-4.48 4.98-5.88 2.12-1.44 4.54-2.16 7.26-2.16Zm39.08.84v1.2c-.76.08-1.46.42-2.1 1.02-.64.6-1.24 1.66-1.8 3.18l-9.84 25.8h-1.02l-11.04-26.58c-.76-1.56-1.52-2.5-2.28-2.82-.72-.36-1.32-.54-1.8-.54V66.1c.88.12 1.8.22 2.76.3.96.04 2 .06 3.12.06 1.24 0 2.54-.04 3.9-.12 1.4-.08 2.7-.16 3.9-.24v1.26c-1 0-1.9.08-2.7.24-.76.12-1.24.54-1.44 1.26-.2.68.04 1.86.72 3.54l7.38 18.3-.36.12 6.84-17.88c.76-2 .84-3.4.24-4.2-.6-.8-1.96-1.28-4.08-1.44v-1.2c1.04.04 1.9.08 2.58.12.72.04 1.54.06 2.46.06.92 0 1.74-.02 2.46-.06.76-.04 1.46-.08 2.1-.12Zm-13.74 31.2-2.04 5.22c-.76 1.96-1.62 3.36-2.58 4.2-.64.6-1.4 1-2.28 1.2-.88.24-1.68.36-2.4.36-.76 0-1.46-.14-2.1-.42-.6-.28-1.08-.7-1.44-1.26-.36-.52-.54-1.16-.54-1.92 0-.96.28-1.74.84-2.34.56-.56 1.34-.84 2.34-.84.84 0 1.56.24 2.16.72.6.48.9 1.18.9 2.1 0 .68-.16 1.24-.48 1.68-.32.44-.7.78-1.14 1.02.08.04.14.06.18.06h.18c1.08 0 2.04-.38 2.88-1.14.84-.72 1.58-1.9 2.22-3.54l2.16-5.58 1.14.48Zm58.401-17.64v2.4h-44.64v-2.4h44.64Z"/></svg>