<svg xmlns="http://www.w3.org/2000/svg" width="48" height="35" fill="none"><path fill="silver" d="M.021 24.79V5.804h13.077v3.899H4.396v4.04h8.155v3.77H4.396v7.277H.021Zm22.563.306c-4.91 0-8.665-3.632-8.665-9.787 0-6.192 3.755-9.81 8.665-9.81 4.886 0 8.654 3.618 8.654 9.81 0 6.18-3.768 9.787-8.654 9.787Zm0-4.002c2.589 0 4.254-2.115 4.254-5.785 0-3.682-1.665-5.81-4.254-5.81-2.6 0-4.266 2.128-4.266 5.81 0 3.67 1.665 5.785 4.266 5.785Z"/><path fill="silver" d="m30.053 24.79 6.514-9.71-5.87-9.276h4.946l1.738 2.867c.547.905 1.07 1.822 1.58 2.727.535-.905 1.07-1.822 1.629-2.727l1.762-2.867h4.813l-5.773 9.149 6.393 9.837h-5.068l-2.273-3.657c-.51-.841-1.02-1.67-1.531-2.51a94.64 94.64 0 0 1-1.568 2.51l-2.358 3.657h-4.934ZM.339 26.322v2.355H.004v-2.355h.335Zm.379 2.355v-2.355h.37l.859 1.424c.052.089.152.267.242.435-.006-.17-.009-.372-.009-.457v-1.402h.336v2.355h-.373l-.768-1.272a21.273 21.273 0 0 1-.335-.587c.011.277.013.48.013.585v1.274H.718Zm2.043-2.047v-.308h1.766v.308h-.713v2.047h-.336V26.63H2.76Zm2.014 2.047v-2.355h1.51v.308H5.11v.694h1.088v.305H5.11v.74h1.176v.308H4.775Zm1.787 0v-2.355h.855c.481 0 .783.283.783.733 0 .33-.17.566-.451.672l.485.95h-.377l-.447-.891h-.513v.891h-.335Zm.335-1.19h.507c.29 0 .466-.166.466-.432 0-.265-.178-.43-.468-.43h-.505v.862Zm1.607 1.19v-2.355h.37l.858 1.424c.053.089.153.267.243.435-.006-.17-.009-.372-.009-.457v-1.402h.336v2.355h-.374l-.767-1.272a21.273 21.273 0 0 1-.335-.587c.01.277.012.48.012.585v1.274h-.334Zm1.995 0 .816-2.355h.404l.81 2.355h-.364l-.2-.611h-.905l-.205.611h-.356Zm.662-.91h.707l-.136-.418a28.608 28.608 0 0 1-.214-.706c-.09.305-.155.512-.217.706l-.14.418Zm1.134-1.137v-.308h1.766v.308h-.713v2.047h-.337V26.63h-.716Zm2.349-.308v2.355h-.335v-2.355h.335Zm1.329 2.393c-.599 0-1.033-.495-1.033-1.214 0-.724.434-1.217 1.033-1.217.598 0 1.034.493 1.034 1.217 0 .721-.436 1.214-1.034 1.214Zm0-.32c.387 0 .698-.32.698-.894 0-.577-.31-.896-.698-.896-.388 0-.697.32-.697.896 0 .574.31.893.697.893Zm1.332.282v-2.355h.37l.858 1.424c.053.089.153.267.243.435-.006-.17-.009-.372-.009-.457v-1.402h.336v2.355h-.373l-.768-1.272a20.902 20.902 0 0 1-.335-.587c.01.277.012.48.012.585v1.274h-.334Zm1.995 0 .816-2.355h.404l.81 2.355h-.364l-.199-.611h-.906l-.205.611H19.3Zm.662-.91h.707l-.136-.418a29.509 29.509 0 0 1-.214-.706c-.09.305-.155.512-.217.706l-.14.418Zm1.568.91v-2.355h.335v2.047h1.063v.308h-1.397Zm3.078 0h-.727v-2.355h.75c.662 0 1.064.446 1.064 1.175 0 .731-.401 1.18-1.087 1.18Zm-.392-.305h.37c.524 0 .773-.327.773-.875 0-.546-.249-.87-.75-.87h-.393v1.745Zm1.775.305v-2.355h1.511v.308h-1.176v.694h1.089v.305h-1.089v.74h1.176v.308h-1.51Zm2.566.038c-.539 0-.87-.303-.87-.801h.334c.002.311.2.494.536.494.304 0 .505-.146.505-.376 0-.181-.12-.286-.431-.363l-.246-.062c-.454-.112-.653-.31-.653-.635 0-.415.318-.688.8-.688.485 0 .79.283.804.743h-.324c-.017-.27-.2-.436-.484-.436-.271 0-.463.15-.463.363 0 .171.12.269.43.346l.243.06c.45.113.658.317.658.653 0 .424-.33.702-.84.702Zm1.461-2.393v2.355h-.334v-2.355h.334Zm1.337 2.393c-.61 0-1.04-.5-1.04-1.214 0-.725.437-1.217 1.038-1.217.489 0 .88.33.952.81h-.34a.604.604 0 0 0-.607-.49c-.427 0-.707.36-.707.897 0 .534.282.893.709.893a.61.61 0 0 0 .63-.627h-.557v-.293h.887v.27c0 .562-.413.971-.965.971Zm1.273-.038v-2.355H33l.858 1.424c.053.089.152.267.243.435a16.5 16.5 0 0 1-.01-.457v-1.402h.337v2.355h-.374l-.767-1.272a21.436 21.436 0 0 1-.335-.587c.01.277.012.48.012.585v1.274h-.335Zm2.7 0 .816-2.355h.404l.81 2.355h-.363l-.2-.611h-.906l-.205.611h-.355Zm.662-.91h.707l-.135-.418a29.051 29.051 0 0 1-.214-.706c-.09.305-.156.512-.217.706l-.14.418Zm1.786.91-.609-2.355h.348l.33 1.37c.047.203.091.407.13.61.041-.203.085-.407.134-.61l.341-1.37h.366l.338 1.37c.048.201.094.402.134.603.04-.201.083-.402.13-.603l.33-1.37h.35l-.612 2.355h-.383l-.37-1.44a11.45 11.45 0 0 1-.102-.458 7.93 7.93 0 0 1-.1.458l-.367 1.44h-.388Zm2.128 0 .816-2.355h.404l.81 2.355h-.364l-.199-.611h-.906l-.205.611h-.356Zm.662-.91h.707l-.135-.418a29.509 29.509 0 0 1-.215-.706c-.09.305-.155.512-.217.706l-.14.418Zm1.569.91v-2.355h.855c.48 0 .782.283.782.733 0 .33-.17.566-.45.672l.485.95h-.377l-.448-.891h-.512v.891h-.335Zm.335-1.19h.506c.29 0 .466-.166.466-.432 0-.265-.178-.43-.467-.43h-.505v.862Zm2.333 1.19h-.727v-2.355h.75c.661 0 1.064.446 1.064 1.175 0 .731-.401 1.18-1.087 1.18Zm-.392-.305h.37c.524 0 .773-.327.773-.875 0-.546-.25-.87-.75-.87h-.393v1.745Zm2.553.343c-.538 0-.87-.303-.87-.801h.335c.001.311.199.494.535.494.305 0 .505-.146.505-.376 0-.181-.119-.286-.431-.363l-.246-.062c-.454-.112-.653-.31-.653-.635 0-.415.319-.688.801-.688.484 0 .79.283.804.743h-.325c-.016-.27-.2-.436-.484-.436-.27 0-.462.15-.462.363 0 .171.12.269.43.346l.242.06c.45.113.659.317.659.653 0 .424-.33.702-.84.702Z"/></svg>