<svg xmlns="http://www.w3.org/2000/svg" width="145" height="32" fill="none"><path fill="#DEDEE2" fill-rule="evenodd" d="m1.046 10.79.013-2.292h.002C3.485 7.114 5.364 6.035 7.187 4.99 9.437 3.7 11.6 2.458 14.594.756l1.548.905L2.737 9.517l1.554.909-.1 15.55-3.23-1.888.009-1.809H.967l.071-10.547.005-.94.003-.002Zm9.013 5.267.013-2.292c2.424-1.383 4.304-2.462 6.127-3.508 2.25-1.291 4.413-2.532 7.407-4.235l1.548.905-13.405 7.858 1.554.909-.1 15.55-3.23-1.888.009-1.809h-.003l.073-10.548.004-.94.003-.002Zm-4.506-2.633.013-2.292h.002c2.424-1.383 4.304-2.461 6.127-3.507 2.25-1.291 4.413-2.532 7.406-4.235l1.548.905-13.405 7.857 1.554.908-.099 15.55-3.23-1.888.008-1.81h-.003l.071-10.547.005-.94.003-.002Zm108.598 9.866V9.504h3.023V23.29h-3.023Zm-.265-17.736c0-.45.159-.822.504-1.14.345-.291.769-.45 1.272-.45.478 0 .902.159 1.247.477.318.318.503.69.503 1.113 0 .477-.185.875-.503 1.193-.345.318-.769.45-1.247.45-.53 0-.98-.132-1.299-.45-.318-.318-.477-.716-.477-1.193Zm-60.214 7.9-1.485-2.226c.636-.637 1.485-1.114 2.519-1.485a9.578 9.578 0 0 1 3.26-.557c1.803 0 3.182.504 4.163 1.485.98 1.007 1.484 2.386 1.484 4.189v8.43h-3.022v-1.51c-1.008 1.113-2.44 1.67-4.268 1.67-1.538 0-2.757-.372-3.659-1.167-.901-.796-1.352-1.856-1.352-3.181 0-1.459.583-2.546 1.75-3.288 1.166-.716 2.73-1.087 4.692-1.087 1.14 0 2.095.133 2.837.371 0-1.034-.212-1.802-.663-2.333-.477-.503-1.246-.769-2.306-.769-1.379 0-2.678.504-3.95 1.459Zm3.313 7.37c1.565 0 2.758-.609 3.606-1.882v-1.325a8.242 8.242 0 0 0-2.519-.371c-2.439 0-3.632.61-3.632 1.829 0 .557.213.98.69 1.299.45.318 1.06.45 1.855.45ZM37.714 23.29V9.504h3.022v1.247c1.034-1.008 2.439-1.538 4.242-1.538 3.685 0 5.54 2.094 5.54 6.283v7.794h-3.022v-7.555c0-1.3-.291-2.254-.822-2.837-.556-.583-1.405-.875-2.571-.875-.743 0-1.432.212-2.015.636-.61.424-1.06.981-1.352 1.697v8.934h-3.022ZM65.288 9.504V23.29h3.022v-8.934a3.723 3.723 0 0 1 1.352-1.697 3.374 3.374 0 0 1 2.015-.636c1.167 0 2.015.292 2.572.875.53.583.822 1.537.822 2.837v7.555h3.022v-7.794c0-4.189-1.856-6.283-5.54-6.283-1.804 0-3.209.53-4.243 1.538V9.504h-3.022Zm13.837 6.867c0-2.068.663-3.791 2.042-5.143 1.378-1.352 3.154-2.042 5.328-2.042 2.174 0 3.95.69 5.329 2.042 1.379 1.352 2.068 3.075 2.068 5.143 0 2.068-.69 3.791-2.068 5.143-1.379 1.352-3.155 2.015-5.329 2.015-2.147 0-3.923-.663-5.302-2.015-1.379-1.352-2.068-3.075-2.068-5.143Zm3.129 0c0 1.272.37 2.306 1.166 3.128.796.822 1.803 1.22 3.075 1.22 1.273 0 2.28-.398 3.076-1.193.795-.796 1.192-1.83 1.192-3.155 0-1.3-.424-2.36-1.219-3.155-.822-.795-1.83-1.22-3.049-1.22-1.246 0-2.253.398-3.048 1.194-.796.795-1.194 1.855-1.194 3.18Zm27.102 6.92 4.454-13.787h-3.075l-2.678 8.749-3.288-8.749h-2.279l-3.235 8.723-2.863-8.723h-3.128l4.613 13.786h2.359l3.367-8.96 3.34 8.96h2.413Zm16.971-4.879c.583.265.875.583.875.955 0 .477-.239.821-.663 1.034-.424.212-.955.318-1.591.318-.901 0-1.723-.186-2.518-.61-.796-.398-1.405-.901-1.777-1.538l-2.385 1.644c.503.98 1.325 1.776 2.465 2.386 1.114.636 2.439.928 3.924.928 1.617 0 2.969-.345 4.056-1.06 1.06-.69 1.617-1.75 1.617-3.129 0-.742-.212-1.405-.636-1.988a4.333 4.333 0 0 0-1.538-1.326 28.78 28.78 0 0 0-2.015-.822 20.454 20.454 0 0 0-1.988-.61c-.636-.159-1.14-.344-1.564-.583-.424-.212-.61-.477-.61-.768 0-.822.663-1.247 2.041-1.247 1.75 0 3.076.53 4.003 1.591l2.068-1.962c-.477-.662-1.246-1.246-2.253-1.723a7.84 7.84 0 0 0-3.314-.716c-1.776 0-3.155.371-4.162 1.114-1.008.742-1.511 1.723-1.511 2.996 0 .875.265 1.617.848 2.226a5.082 5.082 0 0 0 2.094 1.38 22.4 22.4 0 0 0 2.466.794c.795.212 1.485.451 2.068.716Zm15.431.477 1.857 1.83c-1.405 1.882-3.261 2.81-5.594 2.81-2.228 0-4.03-.636-5.382-1.935-1.352-1.3-2.015-3.05-2.015-5.223 0-2.094.61-3.818 1.855-5.17 1.247-1.325 2.996-2.015 5.223-2.015 1.856 0 3.421.584 4.64 1.75 1.22 1.166 1.83 2.678 1.83 4.56 0 .477-.054 1.114-.16 1.935h-10.233c.106 1.06.557 1.883 1.352 2.44.769.583 1.749.848 2.943.848 1.537 0 2.784-.61 3.684-1.83Zm-4.188-6.972c-1.008 0-1.855.265-2.492.769-.663.53-1.087 1.22-1.272 2.12h7.237c-.132-.927-.504-1.643-1.087-2.147-.61-.477-1.405-.742-2.386-.742ZM17.96 13.84l-.024 2.18.004.002-.01.939-.01.733-3.22-2.018 3.26-1.836Zm9.097-5.122-.024 2.18.003.002-.01.939-.147 10.586h-.003l-.01.877-3.208-2.011.14-10.739 3.259-1.834Zm-4.548 2.56-.024 2.181.003.002-.01.94-.086 6.097-3.213-2.015.069-5.369 3.26-1.835Z" clip-rule="evenodd"/></svg>