<svg xmlns="http://www.w3.org/2000/svg" width="140" height="20" fill="none"><path fill="#DEDEE2" d="M10.433 4.982c0-.364 0-.364 5.72-.364s5.72 0 5.72 7.228c0 7.253 0 7.253-5.72 7.253s-5.72 0-5.72-.364v-.363a.699.699 0 0 0-.702-.702c-.416 0-.728.311-.728.701v.364c0 .364 0 .364-4.316.364-4.341 0-4.341 0-4.341-9.1C.346.9.346.9 5.389.9c5.044 0 5.044 0 5.044.676 0 .702 0 .702-.702 1.638-.728.936-.728.936-.728 1.534v.598c0 .39.312.702.728.702a.7.7 0 0 0 .702-.702v-.364Zm1.43 9.386V9.35c0-.416-.312-.728-.702-.728a.71.71 0 0 0-.728.728v5.018c0 .39.312.728.728.728.39 0 .702-.338.702-.728Zm16.326-4.577c-5.018 0-5.018 0-5.018-2.574 0-2.573 0-2.573 10.763-2.573 10.764 0 10.764 0 10.764 7.227 0 7.228 0 7.228-4.342 7.228s-4.16-.026-4.394-.91c-.078-.286-.234-.494-.65-.494-.65 0-.728.52-.728 1.04v.182c0 .182 0 .182-5.693.182-5.72 0-5.72 0-5.72-3.952 0-3.926 0-3.926 5.72-3.926 5.693 0 5.693 0 5.693-1.638V7.945c0-.39-.312-.728-.702-.728-.546 0-.728.495-.754 1.066-.104 1.508.052 1.508-4.94 1.508Zm5.693 5.33c.364 0 .702-.338.702-.702 0-.39-.312-.728-.702-.728h-7.41a.71.71 0 0 0-.727.728c0 .39.338.702.728.702h7.41Zm12.113 1.69c0-2.288 0-2.288 4.992-2.288s4.992 0 4.992.676v.676c0 .364.312.676.676.676.364 0 .65-.312.65-.676v-1.404c0-1.378 0-1.378-5.642-1.378-5.667 0-5.667 0-5.667-4.238 0-4.211 0-4.211 10.659-4.211 10.66 0 10.66 0 10.66 2.287 0 2.288 0 2.288-4.94 2.288-4.966 0-4.966 0-4.966-.65v-.65a.727.727 0 0 0-.728-.728c-.39 0-.702.338-.702.728v1.352c0 1.352 0 1.352 5.668 1.352 5.667 0 5.667 0 5.667 4.238s0 4.238-10.659 4.238c-10.66 0-10.66 0-10.66-2.288Zm34.062-3.587v2.574a.71.71 0 0 0 .728.728c.39 0 .702-.338.702-.728v-1.872c0-1.846 0-1.846.728-1.846.702 0 .702 0 .702 3.51s0 3.51-4.576 3.51c-4.575 0-4.575 0-6.421-1.873-1.873-1.845-1.873-1.845-1.873-4.211 0-2.366 0-2.366-.701-2.366-.728 0-.728 0-.728-3.016s0-3.016.728-3.016c.701 0 .701 0 2.132-1.872C72.908.9 72.908.9 76.495.9c3.562 0 3.562 0 3.562 1.846 0 1.872 0 1.872 1.43 1.872s1.43 0 1.43 3.016 0 3.016-1.43 3.016-1.43 0-1.43 2.574ZM89.224.926c5.018 0 5.018 0 5.018 1.378s0 1.378-5.018 1.378-5.018 0-5.018-1.378 0-1.378 5.018-1.378Zm0 3.77c5.018 0 5.018 0 5.018 7.201 0 7.202 0 7.202-5.018 7.202s-5.018 0-5.018-7.202 0-7.202 5.018-7.202ZM100.548 19.1c-5.018 0-5.018 0-5.018-9.1s0-9.1 5.018-9.1c4.991 0 4.991 0 4.991 9.1s0 9.1-4.991 9.1Zm11.298 0c-5.018 0-5.018 0-5.018-9.1s0-9.1 5.018-9.1c4.992 0 4.992 0 4.992 9.1s0 9.1-4.992 9.1Zm6.28-7.255c0-7.201 0-7.201 10.763-7.201 10.764 0 10.764 0 10.764 7.201 0 7.228 0 7.228-10.764 7.228-10.763 0-10.763 0-10.763-7.228Zm11.439-3.873c0-.39-.338-.702-.728-.702-.39 0-.728.312-.728.702v7.695c0 .39.338.728.728.728.39 0 .728-.338.728-.728V7.972Z"/></svg>