<svg xmlns="http://www.w3.org/2000/svg" width="100" height="20" fill="none"><path fill="#DEDEE2" fill-rule="evenodd" d="M14.344 3.537a5.619 5.619 0 0 1-2.212 2.03 7.689 7.689 0 0 1 3.805 3.837 7.386 7.386 0 0 1 .27 5.32 7.627 7.627 0 0 1-3.398 4.182 8 8 0 0 1-5.39.98 7.856 7.856 0 0 1-4.724-2.706 7.446 7.446 0 0 1-1.728-5.055 7.478 7.478 0 0 1 2.12-4.914 7.897 7.897 0 0 1 4.922-2.347A4.117 4.117 0 0 0 6.565 2.37a4.341 4.341 0 0 0-2.762-.99h-.71a.72.72 0 0 1-.502-.203.68.68 0 0 1 0-.975A.72.72 0 0 1 3.093 0h.71c1.015 0 2.01.265 2.885.766A5.594 5.594 0 0 1 8.772 2.85 5.595 5.595 0 0 1 10.856.766 5.806 5.806 0 0 1 13.741 0h.71a.72.72 0 0 1 .502.202.68.68 0 0 1 .208.488 5.403 5.403 0 0 1-.817 2.847Zm-2.092.293a4.12 4.12 0 0 0 1.43-2.45 4.34 4.34 0 0 0-2.712.997 4.119 4.119 0 0 0-1.429 2.45 4.34 4.34 0 0 0 2.711-.997Zm-7.03 13.745a6.523 6.523 0 0 0 3.55 1.046 6.491 6.491 0 0 0 4.515-1.82 6.125 6.125 0 0 0 1.873-4.387 6.082 6.082 0 0 0-1.076-3.449 6.352 6.352 0 0 0-2.867-2.286 6.563 6.563 0 0 0-3.691-.353 6.45 6.45 0 0 0-3.272 1.699 6.154 6.154 0 0 0-1.748 3.178 6.041 6.041 0 0 0 .363 3.586 6.25 6.25 0 0 0 2.353 2.786Zm7.093-1.719a4.912 4.912 0 0 0 1.416-2.639.675.675 0 0 0-.124-.51.726.726 0 0 0-.986-.16.688.688 0 0 0-.29.442 3.526 3.526 0 0 1-1.016 1.895 3.7 3.7 0 0 1-1.95.987.714.714 0 0 0-.442.257.676.676 0 0 0 .078.93.722.722 0 0 0 .598.174 5.152 5.152 0 0 0 2.716-1.376Zm21.558-1.038c0 2.933-2.088 4.827-4.899 4.827-2.945 0-4.9-1.92-4.9-4.507V13.91h2.517v.827c0 1.813.83 2.747 2.41 2.747 1.552 0 2.356-.934 2.356-2.294 0-1.573-.696-2.56-2.945-3.973-2.008-1.28-4.123-3.013-4.123-5.574 0-2.533 1.686-4.533 4.712-4.533 2.891 0 4.738 1.893 4.738 4.507v1.146H31.33v-.826c0-1.494-.723-2.667-2.41-2.667-1.392 0-2.114.827-2.114 2.027 0 1.573.722 2.4 3.293 4.053 2.596 1.68 3.774 3.173 3.774 5.467Zm12.095 4.426h-1.794l-4.417-8.64-1.5-3.12v11.76h-2.409V1.484h2.061l4.23 8.8 1.42 3.12V1.485h2.409v17.76Zm9.54 0h2.57l-4.042-17.76H51.36l-4.043 17.76h2.463l.937-4.346h3.856l.936 4.346ZM52.645 5.458l1.472 7.28h-2.945l1.473-7.28Zm16.17 2.587c0 2.506-1.285 4.08-4.176 4.08h-2.65v7.12H59.47V1.484h5.167c2.89 0 4.176 1.546 4.176 4.106v2.454Zm-2.543.08V5.51c0-1.173-.429-1.84-1.607-1.84h-2.677v6.294h2.677c1.178 0 1.607-.694 1.607-1.84Zm9.602 4c2.892 0 4.177-1.574 4.177-4.08V5.59c0-2.56-1.285-4.107-4.177-4.107h-5.167v17.76h2.517v-7.12h2.65Zm1.633-6.614v2.614c0 1.146-.428 1.84-1.606 1.84h-2.677V3.67H75.9c1.178 0 1.606.667 1.606 1.84Zm12.602 13.733h-8.166V1.484h2.517v15.467h5.649v2.293Zm1.554 0h8.299v-2.293h-5.783v-5.92h4.177V8.845h-4.177V3.778h5.783V1.484h-8.3v17.76Z" clip-rule="evenodd"/></svg>