<svg xmlns="http://www.w3.org/2000/svg" width="192" height="32" fill="none"><path stroke="#F40" stroke-linecap="square" stroke-width="1.014" d="M7.854 11a10.918 10.918 0 0 0-.553 3.457c0 5.092 3.405 9.22 7.606 9.22 4.2 0 7.606-4.128 7.606-9.22 0-1.222-.196-2.39-.553-3.457m-3.32 16.803S17.774 24 15.47 24c-2.305 0-3.17 3.803-3.17 3.803"/><path stroke="#F40" stroke-linecap="square" stroke-width="1.014" d="M24.05 7.827c.37 2.112-1.293 3.511-1.293 3.511s-2.033-.713-2.402-2.826C19.985 6.399 21.647 5 21.647 5s2.033.714 2.403 2.827Zm-9.75 4.807.635-.634h.633v6.338m1.268 0h-2.535m12.923-2.358c-1.625 1.606-3.824.964-3.824.964s-.575-2.247 1.049-3.853c1.624-1.606 3.824-.965 3.824-.965s.575 2.248-1.05 3.854Zm-3.726 7.603c-1.901-.73-2.197-2.776-2.197-2.776s1.605-1.316 3.507-.587c1.901.73 2.197 2.776 2.197 2.776s-1.605 1.316-3.507.587Zm-15.69 0c1.901-.73 2.197-2.776 2.197-2.776S8.4 19.491 6.498 20.22c-1.901.73-2.197 2.776-2.197 2.776s1.605 1.316 3.507.587ZM3.449 15.98c1.624 1.606 3.824.964 3.824.964s.575-2.247-1.05-3.853C4.6 11.485 2.4 12.126 2.4 12.126s-.575 2.248 1.049 3.854Zm3.905-8.153c-.37 2.112 1.293 3.511 1.293 3.511s2.033-.713 2.403-2.826C11.42 6.399 9.757 5 9.757 5s-2.032.714-2.402 2.827Z"/><path fill="#DEDEE2" d="M48.889 12.546v-8.12h-1.68v1.12c.056.728-1.176.728-1.12 0v-1.68a.58.58 0 0 1 .56-.56h5.6c.322 0 .56.238.56.56v1.68c.056.728-1.176.728-1.12 0v-1.12h-1.68v8.12c0 .322-.238.56-.56.56a.58.58 0 0 1-.56-.56Zm5.18-1.82V5.658c0-1.33 1.037-2.352 2.367-2.352h1.988a2.351 2.351 0 0 1 2.366 2.352v5.068a2.357 2.357 0 0 1-2.366 2.38h-1.988a2.357 2.357 0 0 1-2.366-2.38Zm4.355-6.3h-1.988c-.672 0-1.246.56-1.246 1.232v5.068c0 .686.574 1.26 1.246 1.26h1.988a1.26 1.26 0 0 0 1.246-1.26V5.658c0-.672-.56-1.232-1.246-1.232Zm4.187-1.12h3.794c.658 0 1.204.238 1.666.7.462.462.7 1.008.7 1.666V6.4c0 .658-.224 1.218-.686 1.68a2.281 2.281 0 0 1-1.68.686H63.17v3.78c.056.728-1.176.728-1.12 0v-8.68a.58.58 0 0 1 .56-.56ZM67.65 6.4v-.728c0-.686-.56-1.246-1.246-1.246H63.17v3.22h3.234c.686 0 1.246-.56 1.246-1.246Zm10.922-3.094h3.794a2.25 2.25 0 0 1 1.666.686c.462.462.7 1.008.7 1.666v5.068c0 .658-.238 1.232-.7 1.694a2.25 2.25 0 0 1-1.666.686h-3.794a.58.58 0 0 1-.56-.56v-8.68a.58.58 0 0 1 .56-.56Zm3.794 1.12h-3.234v7.56h3.234a1.26 1.26 0 0 0 1.246-1.26V5.658c0-.672-.56-1.232-1.246-1.232Zm9.787 0h-5.04v3.22h5.04c.728-.056.728 1.176 0 1.12h-5.04v3.22h5.04c.728-.056.728 1.176 0 1.12h-5.6a.544.544 0 0 1-.56-.56v-8.68a.58.58 0 0 1 .56-.56h5.6c.728-.056.728 1.176 0 1.12Zm7.435 1.232c0-.672-.574-1.232-1.26-1.232H96.34c-.672 0-1.246.56-1.246 1.246-.014 1.26 2.044 1.82 3.626 2.548 1.106.49 1.988 1.344 1.988 2.506 0 .658-.238 1.218-.7 1.68-.462.462-1.022.7-1.68.7h-1.974a2.281 2.281 0 0 1-1.68-.686 2.294 2.294 0 0 1-.7-1.68c-.056-.728 1.176-.728 1.12 0a1.26 1.26 0 0 0 1.26 1.246h1.988c.686 0 1.246-.546 1.246-1.26.014-1.26-2.044-1.82-3.626-2.534-1.106-.504-1.988-1.358-1.988-2.52 0-.658.224-1.204.686-1.666a2.294 2.294 0 0 1 1.68-.7h1.988a2.28 2.28 0 0 1 1.68.686c.462.462.7 1.008.7 1.666.056.728-1.176.728-1.12 0Zm8.527-1.232h-2.24v7.56h2.24c.728-.056.728 1.176 0 1.12h-5.6a.544.544 0 0 1-.56-.56.58.58 0 0 1 .56-.56h2.24v-7.56h-2.24a.544.544 0 0 1-.56-.56.58.58 0 0 1 .56-.56h5.6c.728-.056.728 1.176 0 1.12Zm7.981 3.22a.58.58 0 0 1 .56.56v2.52a2.357 2.357 0 0 1-2.366 2.38h-1.974a2.357 2.357 0 0 1-2.38-2.366V5.658c0-1.344 1.05-2.352 2.38-2.352h1.974a2.337 2.337 0 0 1 2.366 2.366c0 .322-.238.56-.56.56a.562.562 0 0 1-.56-.56c0-.686-.56-1.246-1.246-1.246h-1.974c-.686 0-1.26.56-1.26 1.232v5.082a1.26 1.26 0 0 0 1.26 1.246h1.974a1.26 1.26 0 0 0 1.246-1.26v-1.96h-1.68a.58.58 0 0 1-.56-.56c0-.322.238-.56.56-.56h2.24Zm2.872-4.06 4.55 7.14v-6.86a.58.58 0 0 1 .56-.56c.322 0 .56.238.56.56v8.68c0 .322-.238.56-.56.56-.21 0-.378-.098-.504-.294l-4.536-7.126v6.86c.056.728-1.176.728-1.12 0v-8.68a.58.58 0 0 1 .56-.56c.21 0 .364.098.49.28Zm20.526 9.142-.602-1.862h-3.304L135 12.728a.596.596 0 0 1-.56.378c-.056 0-.112-.014-.168-.028a.56.56 0 0 1-.35-.7l2.772-8.694c.098-.266.28-.392.546-.378.28-.014.462.112.56.378l2.772 8.694a.56.56 0 0 1-.35.7.703.703 0 0 1-.168.028.596.596 0 0 1-.56-.378Zm-2.254-7.042-1.288 4.06h2.59l-1.302-4.06Zm10.781 1.96a.58.58 0 0 1 .56.56v2.52a2.357 2.357 0 0 1-2.366 2.38h-1.974a2.357 2.357 0 0 1-2.38-2.366V5.658c0-1.344 1.05-2.352 2.38-2.352h1.974a2.337 2.337 0 0 1 2.366 2.366c0 .322-.238.56-.56.56a.562.562 0 0 1-.56-.56c0-.686-.56-1.246-1.246-1.246h-1.974c-.686 0-1.26.56-1.26 1.232v5.082a1.26 1.26 0 0 0 1.26 1.246h1.974a1.26 1.26 0 0 0 1.246-1.26v-1.96h-1.68a.58.58 0 0 1-.56-.56c0-.322.238-.56.56-.56h2.24Zm7.981-3.22h-5.04v3.22h5.04c.728-.056.728 1.176 0 1.12h-5.04v3.22h5.04c.728-.056.728 1.176 0 1.12h-5.6a.544.544 0 0 1-.56-.56v-8.68a.58.58 0 0 1 .56-.56h5.6c.728-.056.728 1.176 0 1.12Zm2.871-.84 4.55 7.14v-6.86a.58.58 0 0 1 .56-.56c.322 0 .56.238.56.56v8.68c0 .322-.238.56-.56.56-.21 0-.378-.098-.504-.294l-4.536-7.126v6.86c.056.728-1.176.728-1.12 0v-8.68a.58.58 0 0 1 .56-.56c.21 0 .364.098.49.28Zm12.531 2.086c0-.686-.56-1.246-1.246-1.246h-1.974c-.686 0-1.26.56-1.26 1.232v5.082c0 .672.602 1.246 1.26 1.246h1.974c.658 0 1.246-.602 1.246-1.26a.58.58 0 0 1 .56-.56c.322 0 .56.238.56.56a2.357 2.357 0 0 1-2.366 2.38h-1.974a2.357 2.357 0 0 1-2.38-2.366V5.658c0-1.344 1.05-2.352 2.38-2.352h1.974a2.337 2.337 0 0 1 2.366 2.366c0 .322-.238.56-.56.56a.562.562 0 0 1-.56-.56Zm5.181 6.874V8.374L173.87 4.16a.549.549 0 0 1 .168-.77.55.55 0 0 1 .784.154l2.324 3.612 2.324-3.612a.55.55 0 0 1 .784-.154.549.549 0 0 1 .168.77l-2.716 4.214v4.172c0 .322-.238.56-.56.56a.58.58 0 0 1-.56-.56ZM45.45 29.106l3.575-10.185h2.707l3.576 10.185h-2.331l-.711-2.221h-3.808l-.738 2.221h-2.27Zm3.575-3.903h2.694l-.342-1.053a213.726 213.726 0 0 1-.991-3.342c-.37 1.264-.684 2.303-1.012 3.342l-.349 1.053Zm7.783 3.903-2.734-10.185h2.242l1.196 5.059c.199.895.383 1.79.554 2.686.178-.896.376-1.791.588-2.686l1.265-5.06h2.146l1.251 5.06c.212.888.41 1.777.588 2.659.17-.882.355-1.77.554-2.66l1.196-5.058h2.249l-2.741 10.185h-2.345l-1.45-5.557a55.714 55.714 0 0 1-.382-1.702c-.137.642-.253 1.203-.383 1.702l-1.435 5.557h-2.359Zm9.854 0 3.576-10.185h2.707l3.575 10.185h-2.331l-.711-2.221H69.67l-.738 2.221h-2.27Zm3.576-3.903h2.693l-.342-1.053c-.314-1.039-.629-2.078-.991-3.342-.37 1.264-.684 2.303-1.012 3.342l-.348 1.053Zm6.976 3.903V18.921h4.074c2.297 0 3.732 1.292 3.732 3.343 0 1.346-.676 2.358-1.818 2.884l2.044 3.958H82.99l-1.804-3.561h-1.867v3.561h-2.105Zm2.105-5.25h1.846c1.107 0 1.798-.622 1.798-1.592 0-.971-.69-1.593-1.805-1.593H79.32v3.185Zm10.456 5.25h-3.596V18.921h3.637c3.063 0 4.99 1.962 4.99 5.086 0 3.137-1.907 5.1-5.031 5.1Zm-1.49-1.77h1.38c2.058 0 3.022-1.183 3.022-3.33 0-2.139-.977-3.315-3-3.315h-1.402v6.645Zm10.227 1.77v-1.545l3.732-3.192c.902-.793 1.565-1.374 1.565-2.33 0-.972-.642-1.6-1.64-1.6-1.094 0-1.764.745-1.764 1.982h-1.934c0-2.215 1.435-3.664 3.698-3.664 2.092 0 3.595 1.244 3.595 3.172 0 1.428-.827 2.379-2.249 3.595l-2.16 1.88v.014h4.457v1.688h-7.3Zm12.246.164c-2.563 0-4.122-2.016-4.122-5.25 0-3.24 1.559-5.263 4.122-5.263 2.564 0 4.122 2.016 4.122 5.263 0 3.234-1.558 5.25-4.122 5.25Zm0-1.681c1.326 0 2.14-1.354 2.14-3.569 0-2.221-.814-3.581-2.14-3.581s-2.139 1.36-2.139 3.581c0 2.215.813 3.569 2.139 3.569Zm4.96 1.517v-1.545l3.732-3.192c.903-.793 1.566-1.374 1.566-2.33 0-.972-.643-1.6-1.641-1.6-1.094 0-1.764.745-1.764 1.982h-1.934c0-2.215 1.435-3.664 3.698-3.664 2.092 0 3.596 1.244 3.596 3.172 0 1.428-.827 2.379-2.249 3.595l-2.16 1.88v.014h4.457v1.688h-7.301Zm12.055.164c-2.536 0-3.876-1.585-3.876-3.527h2.01c0 1.183.69 1.887 1.846 1.887 1.087 0 1.832-.602 1.832-1.51 0-.869-.8-1.436-2.003-1.436h-.909v-1.539h.909c1.1 0 1.804-.512 1.804-1.332 0-.875-.663-1.45-1.633-1.45-1.005 0-1.668.63-1.668 1.614h-1.983c0-1.86 1.422-3.22 3.651-3.22 2.085 0 3.589 1.182 3.589 2.844 0 1.148-.793 1.962-1.942 2.2v.021c1.422.185 2.256 1.203 2.256 2.413 0 1.764-1.6 3.035-3.883 3.035Z"/></svg>