<svg xmlns="http://www.w3.org/2000/svg" width="33" height="32" fill="none"><path fill="#949495" d="M9.554 28h12.472a2.4 2.4 0 0 0 2.078-1.2l2.771-4.8H13.021l-3.467 6Z" opacity=".7"/><path fill="#949495" d="M19.952 10H6.09l2.771-4.8a2.4 2.4 0 0 1 2.08-1.2h12.471l-3.46 6Zm9.698 7.2a2.4 2.4 0 0 0 0-2.4L26.877 10l-3.465 6H9.557l3.464 6h13.855l.002.001 2.771-4.8Z" opacity=".4"/><path fill="#949495" d="m13.02 22-3.465-6-3.464 6 3.464 6 3.464-6Z"/><path fill="#949495" d="M19.951 10H6.091l-2.77 4.8a2.4 2.4 0 0 0 0 2.4L6.095 22l3.464-6h13.856l-3.463-6Z" opacity=".7"/><path fill="#949495" d="m26.879 10-3.465-6-3.464 6 3.465 6 3.464-6Z"/></svg>