<svg xmlns="http://www.w3.org/2000/svg" width="178" height="29" fill="none"><path stroke="#F40" stroke-linecap="square" stroke-width=".934" d="M7.464 8.906a10.075 10.075 0 0 0-.509 3.185c0 4.69 3.137 8.492 7.006 8.492 3.87 0 7.006-3.802 7.006-8.492 0-1.126-.18-2.201-.509-3.185M16.794 24.41s-.797-3.504-2.92-3.504c-2.123 0-2.919 3.503-2.919 3.503"/><path stroke="#F40" stroke-linecap="square" stroke-width=".934" d="M21.409 6.51c.34 1.946-1.191 3.235-1.191 3.235s-1.873-.658-2.213-2.604c-.341-1.946 1.19-3.235 1.19-3.235s1.873.658 2.214 2.604Zm-8.454 3.98.584-.584h.584v5.839m1.167 0h-2.335m11.613-1.173c-1.496 1.48-3.522.889-3.522.889s-.53-2.07.967-3.55c1.496-1.479 3.522-.888 3.522-.888s.53 2.07-.967 3.549Zm-3.588 6.634c-1.752-.672-2.025-2.556-2.025-2.556s1.479-1.213 3.23-.54c1.752.671 2.025 2.556 2.025 2.556s-1.48 1.212-3.23.54Zm-13.795 0c1.752-.672 2.025-2.556 2.025-2.556s-1.48-1.213-3.23-.54c-1.752.671-2.025 2.556-2.025 2.556s1.479 1.212 3.23.54Zm-4.172-6.634c1.496 1.48 3.522.889 3.522.889s.53-2.07-.967-3.55c-1.496-1.479-3.522-.888-3.522-.888s-.53 2.07.967 3.549ZM6.005 6.51c-.341 1.946 1.19 3.235 1.19 3.235S9.068 9.087 9.41 7.14c.34-1.946-1.191-3.235-1.191-3.235s-1.873.658-2.213 2.604Z"/><path fill="#DEDEE2" d="m39.338 11.134-.602-1.862h-3.304l-.588 1.862a.596.596 0 0 1-.56.378c-.056 0-.112-.014-.168-.028a.56.56 0 0 1-.35-.7l2.772-8.694c.098-.266.28-.392.546-.378.28-.014.462.112.56.378l2.772 8.694a.56.56 0 0 1-.35.7.703.703 0 0 1-.168.028.596.596 0 0 1-.56-.378Zm-2.254-7.042-1.288 4.06h2.59l-1.302-4.06Zm10.781 1.96a.58.58 0 0 1 .56.56v2.52a2.357 2.357 0 0 1-2.365 2.38h-1.974a2.357 2.357 0 0 1-2.38-2.366V4.064c0-1.344 1.05-2.352 2.38-2.352h1.974a2.337 2.337 0 0 1 2.365 2.366c0 .322-.237.56-.56.56a.562.562 0 0 1-.56-.56c0-.686-.56-1.246-1.245-1.246h-1.974c-.686 0-1.26.56-1.26 1.232v5.082a1.26 1.26 0 0 0 1.26 1.246h1.974a1.26 1.26 0 0 0 1.245-1.26v-1.96h-1.68a.58.58 0 0 1-.56-.56c0-.322.239-.56.56-.56h2.24Zm7.982-3.22h-5.04v3.22h5.04c.728-.056.728 1.176 0 1.12h-5.04v3.22h5.04c.728-.056.728 1.176 0 1.12h-5.6a.544.544 0 0 1-.56-.56v-8.68a.58.58 0 0 1 .56-.56h5.6c.728-.056.728 1.176 0 1.12Zm2.87-.84 4.55 7.14v-6.86a.58.58 0 0 1 .56-.56c.323 0 .56.238.56.56v8.68c0 .322-.237.56-.56.56-.21 0-.377-.098-.503-.294l-4.536-7.126v6.86c.056.728-1.176.728-1.12 0v-8.68a.58.58 0 0 1 .56-.56c.21 0 .364.098.49.28ZM71.25 4.078c0-.686-.56-1.246-1.246-1.246H68.03c-.686 0-1.26.56-1.26 1.232v5.082c0 .672.602 1.246 1.26 1.246h1.974c.658 0 1.246-.602 1.246-1.26a.58.58 0 0 1 .56-.56c.322 0 .56.238.56.56a2.357 2.357 0 0 1-2.366 2.38H68.03a2.357 2.357 0 0 1-2.38-2.366V4.064c0-1.344 1.05-2.352 2.38-2.352h1.974a2.337 2.337 0 0 1 2.366 2.366c0 .322-.238.56-.56.56a.562.562 0 0 1-.56-.56Zm5.18 6.874V6.78l-2.715-4.214a.549.549 0 0 1 .168-.77.55.55 0 0 1 .784.154l2.324 3.612 2.324-3.612a.55.55 0 0 1 .784-.154.549.549 0 0 1 .168.77L77.55 6.78v4.172c0 .322-.238.56-.56.56a.58.58 0 0 1-.56-.56Zm13.163-1.82V4.064c0-1.33 1.036-2.352 2.366-2.352h1.988a2.351 2.351 0 0 1 2.366 2.352v5.068a2.357 2.357 0 0 1-2.366 2.38h-1.988a2.357 2.357 0 0 1-2.366-2.38Zm4.354-6.3h-1.988c-.672 0-1.246.56-1.246 1.232v5.068c0 .686.574 1.26 1.246 1.26h1.988a1.26 1.26 0 0 0 1.246-1.26V4.064c0-.672-.56-1.232-1.246-1.232Zm3.627 8.12v-8.68a.58.58 0 0 1 .56-.56h5.6c.728-.056.728 1.176 0 1.12h-5.04v3.22h5.04c.728-.056.728 1.176 0 1.12h-5.04v3.78c.056.728-1.176.728-1.12 0Zm18.762 0v-8.12h-1.68v1.12c.056.728-1.176.728-1.12 0v-1.68a.58.58 0 0 1 .56-.56h5.6c.322 0 .56.238.56.56v1.68c.056.728-1.176.728-1.12 0v-1.12h-1.68v8.12c0 .322-.238.56-.56.56a.58.58 0 0 1-.56-.56Zm5.741-9.24c.322 0 .56.238.56.56v3.78h4.48v-3.78a.58.58 0 0 1 .56-.56c.322 0 .56.238.56.56v8.68c.028.364-.266.546-.56.546-.294 0-.588-.182-.56-.546v-3.78h-4.48v3.78c.028.364-.266.546-.56.546-.294 0-.588-.182-.56-.546v-8.68a.58.58 0 0 1 .56-.56Zm13.582 1.12h-5.04v3.22h5.04c.728-.056.728 1.176 0 1.12h-5.04v3.22h5.04c.728-.056.728 1.176 0 1.12h-5.6a.544.544 0 0 1-.56-.56v-8.68a.58.58 0 0 1 .56-.56h5.6c.728-.056.728 1.176 0 1.12Zm12.602 8.12V6.78l-2.716-4.214a.549.549 0 0 1 .168-.77.55.55 0 0 1 .784.154l2.324 3.612 2.324-3.612a.55.55 0 0 1 .784-.154.549.549 0 0 1 .168.77L149.38 6.78v4.172c0 .322-.238.56-.56.56a.58.58 0 0 1-.56-.56Zm11.341-8.12h-5.04v3.22h5.04c.728-.056.728 1.176 0 1.12h-5.04v3.22h5.04c.728-.056.728 1.176 0 1.12h-5.6a.544.544 0 0 1-.56-.56v-8.68a.58.58 0 0 1 .56-.56h5.6c.728-.056.728 1.176 0 1.12Zm7.435 8.302-.602-1.862h-3.304l-.588 1.862a.596.596 0 0 1-.56.378c-.056 0-.112-.014-.168-.028a.56.56 0 0 1-.35-.7l2.772-8.694c.098-.266.28-.392.546-.378.28-.014.462.112.56.378l2.772 8.694a.56.56 0 0 1-.35.7.703.703 0 0 1-.168.028.596.596 0 0 1-.56-.378Zm-2.254-7.042-1.288 4.06h2.59l-1.302-4.06Zm5.181-2.38h3.794c.658 0 1.204.238 1.666.7.462.462.7 1.008.7 1.666v.728c0 .658-.224 1.218-.686 1.68a2.281 2.281 0 0 1-1.68.686h-1.582l3.752 3.374c.238.21.252.546.042.784a.541.541 0 0 1-.784.028l-4.662-4.186v3.78c.056.728-1.176.728-1.12 0v-8.68a.58.58 0 0 1 .56-.56Zm5.04 3.094v-.728c0-.686-.56-1.246-1.246-1.246h-3.234v3.22h3.234c.686 0 1.246-.56 1.246-1.246ZM33.086 26.512l3.575-10.186h2.707l3.575 10.186h-2.33L39.9 24.29h-3.807l-.739 2.222h-2.27Zm3.575-3.904h2.694l-.342-1.052c-.315-1.04-.63-2.079-.991-3.343a162.33 162.33 0 0 1-1.012 3.343l-.349 1.052Zm7.783 3.904L41.71 16.326h2.242l1.196 5.059c.198.895.383 1.79.554 2.686.178-.895.376-1.79.588-2.686l1.264-5.059h2.147l1.25 5.059c.213.888.411 1.777.589 2.659.17-.882.355-1.77.553-2.66l1.197-5.058h2.249l-2.742 10.186h-2.344l-1.45-5.558a55.759 55.759 0 0 1-.382-1.702c-.137.643-.253 1.203-.383 1.702l-1.436 5.558h-2.358Zm9.854 0 3.575-10.186h2.707l3.576 10.186h-2.332l-.71-2.222h-3.808l-.738 2.222h-2.27Zm3.575-3.904h2.694l-.342-1.052a217.33 217.33 0 0 1-.991-3.343 162.33 162.33 0 0 1-1.012 3.343l-.349 1.052Zm6.977 3.904V16.326h4.074c2.297 0 3.732 1.292 3.732 3.343 0 1.347-.677 2.358-1.818 2.885l2.044 3.958h-2.256L68.82 22.95h-1.866v3.562H64.85Zm2.105-5.25h1.846c1.107 0 1.798-.622 1.798-1.593 0-.97-.69-1.593-1.805-1.593h-1.839v3.186Zm10.456 5.25h-3.596V16.326h3.637c3.062 0 4.99 1.962 4.99 5.086 0 3.138-1.907 5.1-5.031 5.1Zm-1.49-1.77h1.38c2.058 0 3.022-1.183 3.022-3.33 0-2.14-.978-3.315-3.001-3.315H75.92v6.644Zm10.226 1.77v-1.545l3.733-3.193c.902-.793 1.565-1.374 1.565-2.33 0-.971-.642-1.6-1.64-1.6-1.094 0-1.764.745-1.764 1.982h-1.935c0-2.215 1.436-3.664 3.699-3.664 2.091 0 3.595 1.244 3.595 3.172 0 1.429-.827 2.379-2.249 3.596l-2.16 1.88v.013h4.457v1.689h-7.3Zm12.247.164c-2.564 0-4.122-2.017-4.122-5.25 0-3.24 1.558-5.264 4.122-5.264s4.122 2.017 4.122 5.264c0 3.233-1.558 5.25-4.122 5.25Zm0-1.682c1.326 0 2.14-1.353 2.14-3.568 0-2.222-.814-3.582-2.14-3.582s-2.14 1.36-2.14 3.582c0 2.215.814 3.568 2.14 3.568Zm4.96 1.518v-1.545l3.732-3.193c.902-.793 1.565-1.374 1.565-2.33 0-.971-.642-1.6-1.64-1.6-1.094 0-1.764.745-1.764 1.982h-1.934c0-2.215 1.435-3.664 3.698-3.664 2.092 0 3.596 1.244 3.596 3.172 0 1.429-.828 2.379-2.249 3.596l-2.161 1.88v.013h4.457v1.689h-7.3Zm7.871-2.195V22.69l4.485-6.364h2.577v6.358h1.333v1.633h-1.333v2.195h-1.976v-2.195h-5.086Zm5.086-1.633v-4.348h-.013l-3.042 4.334v.014h3.055Z"/></svg>