<svg xmlns="http://www.w3.org/2000/svg" width="111" height="24" fill="none"><path fill="#DEDEE2" fill-rule="evenodd" d="M25.128 12c0 6.627-5.548 12-12.391 12C5.893 24 .346 18.627.346 12S5.893 0 12.736 0c6.844 0 12.392 5.373 12.392 12ZM12.249 6c-.67 0-1.214.527-1.214 1.176 0 .65.544 1.177 1.214 1.177h5.466c.671 0 1.215-.527 1.215-1.177S18.386 6 17.715 6H12.25ZM9.394 8.941c-.67 0-1.214.527-1.214 1.176 0 .65.544 1.177 1.214 1.177h5.466c.671 0 1.215-.527 1.215-1.177s-.544-1.176-1.214-1.176H9.393Zm-.426 4.117c0-.65.543-1.176 1.214-1.176h5.466c.671 0 1.215.526 1.215 1.176 0 .65-.544 1.177-1.215 1.177h-5.466c-.67 0-1.214-.527-1.214-1.177Zm-1.216 1.765c-.67 0-1.214.527-1.214 1.176 0 .65.544 1.176 1.214 1.176h5.467c.67 0 1.214-.526 1.214-1.176 0-.65-.544-1.176-1.214-1.176H7.752Zm67.874-6.581h-1.763l-.32 1.486h1.763l-1.74 8.048h4.647L80 9.728h2.862l-1.763 8.048h4.67l2.107-9.534H80.32l.366-1.64c.092-.37.229-.666.412-.888.183-.236.397-.414.641-.532.244-.133.511-.222.801-.266.29-.044.58-.066.87-.066.55 0 1.061.066 1.535.2.488.117.976.28 1.465.487l.733-2.195a13.41 13.41 0 0 0-2.198-.643c-.672-.133-1.382-.2-2.13-.2-.84 0-1.64.089-2.404.266a6.574 6.574 0 0 0-2.06.82 5.59 5.59 0 0 0-1.58 1.508c-.427.606-.74 1.353-.939 2.24l-.206.909Zm-34.445-.466c.046-.221.069-.524.069-.909 0-.221-.015-.436-.046-.643a1.995 1.995 0 0 0-.16-.576.82.82 0 0 0-.344-.4c-.152-.103-.35-.155-.595-.155-.275 0-.526.06-.755.178a2.322 2.322 0 0 0-.619.465 2.144 2.144 0 0 0-.412.643 2.069 2.069 0 0 0-.137.754c0 .385.1.68.297.887.214.207.489.377.825.51.335.133.717.244 1.145.333.427.088.87.192 1.327.31.382.104.764.237 1.145.4.382.162.718.384 1.008.665.305.266.55.62.732 1.064.183.428.275.968.275 1.618 0 .932-.19 1.715-.572 2.35a4.464 4.464 0 0 1-1.58 1.553c-.672.399-1.473.687-2.404.864-.916.178-1.916.267-3 .267-1.098 0-1.999-.067-2.701-.2-.687-.148-1.229-.303-1.626-.466-.473-.192-.824-.413-1.053-.665l.779-3.037h4.03c-.016.133-.031.317-.047.554a8.35 8.35 0 0 0-.023.532c0 .177.023.362.07.554.045.192.114.37.205.532.107.163.252.296.435.4.183.103.412.155.687.155.305 0 .572-.067.801-.2.245-.133.443-.295.596-.487.168-.208.29-.43.366-.666.092-.251.137-.495.137-.731 0-.326-.084-.6-.251-.82a1.785 1.785 0 0 0-.641-.555 4.035 4.035 0 0 0-.962-.4 47.426 47.426 0 0 0-1.099-.354 17.91 17.91 0 0 1-1.168-.377 4.02 4.02 0 0 1-1.099-.62 3.44 3.44 0 0 1-.847-.999c-.214-.413-.32-.938-.32-1.574 0-.946.244-1.737.732-2.372a5.791 5.791 0 0 1 1.878-1.575 8.661 8.661 0 0 1 2.495-.842c.9-.177 1.756-.266 2.565-.266 1.068 0 1.984.125 2.747.377.778.236 1.366.517 1.763.842l-.847 3.082h-3.8Zm7.577 13.725h-4.671l2.885-13.26h3.731l.413 1.42h.137c.55-.562 1.16-.96 1.832-1.197a5.843 5.843 0 0 1 2.014-.377c.535 0 .977.081 1.328.244.367.147.657.354.87.62.214.267.367.584.458.954.092.37.138.761.138 1.175 0 .207-.016.517-.046.931-.03.414-.1.88-.206 1.397a11.86 11.86 0 0 1-.458 1.574 5.716 5.716 0 0 1-.801 1.464 3.76 3.76 0 0 1-1.237 1.086c-.488.281-1.076.422-1.763.422a4.577 4.577 0 0 1-2.083-.488 4.1 4.1 0 0 1-.779-.51 2.44 2.44 0 0 1-.48-.621h-.138L48.757 21.5Zm2.426-5.698c.367 0 .672-.185.916-.555a5.39 5.39 0 0 0 .596-1.33 9.461 9.461 0 0 0 .32-1.53c.076-.517.114-.902.114-1.153 0-.295-.053-.54-.16-.731-.091-.193-.267-.289-.526-.289-.29 0-.565.104-.825.31-.26.193-.45.363-.572.51l-.893 4.058c.122.163.267.325.435.488a.872.872 0 0 0 .595.222Zm6.64 1.973h4.647l2.13-9.534h-4.694l-2.083 9.534Zm7.143-11.552c.153-.251.229-.547.229-.887 0-.59-.206-1.027-.618-1.308-.412-.28-.916-.421-1.511-.421-.336 0-.664.044-.985.133a2.66 2.66 0 0 0-.824.399 1.768 1.768 0 0 0-.55.643c-.137.251-.206.54-.206.865 0 .606.206 1.05.618 1.33.413.281.924.421 1.535.421.32 0 .633-.044.938-.133.305-.088.573-.221.802-.399a1.94 1.94 0 0 0 .572-.643Zm.388 2.018a12.069 12.069 0 0 0 1.489-.4 5.61 5.61 0 0 0 1.167-.553c.367-.222.71-.496 1.03-.82.336-.326.695-.725 1.077-1.198h2.358l-.664 2.97h1.786L73.3 9.729h-1.809l-.938 4.323c-.077.34-.138.643-.184.91a3.918 3.918 0 0 0-.068.62c0 .296.107.48.32.554.23.074.649.111 1.26.111l-.344 1.53a2.73 2.73 0 0 1-.504.067c-.213.015-.457.03-.732.044-.26.03-.534.044-.825.044a13.59 13.59 0 0 1-.732.023c-.382 0-.756-.03-1.122-.09a2.927 2.927 0 0 1-.984-.287 1.947 1.947 0 0 1-.71-.688c-.168-.295-.252-.694-.252-1.197 0-.178.008-.4.023-.665.03-.266.084-.562.16-.887l.962-4.412h-1.786l.32-1.486Zm24.078 0h3.732l.343 1.663h.16a4.819 4.819 0 0 1 1.351-1.353c.55-.37 1.275-.554 2.175-.554.061 0 .153.007.275.022.137 0 .282.022.435.067.168.03.336.081.504.155.183.06.358.148.526.266l-1.007 4.568h-2.496c-.03-.917-.114-1.553-.251-1.907-.138-.37-.36-.555-.664-.555-.153 0-.321.037-.504.111-.168.06-.344.2-.527.421l-1.465 6.63h-4.67l2.083-9.534Zm13.609 6.009c.03-.296.076-.606.137-.931h6.434a3.42 3.42 0 0 0 .55-1.176c.121-.473.183-.909.183-1.308 0-.975-.39-1.692-1.168-2.15-.763-.459-1.909-.688-3.434-.688-1.405 0-2.58.163-3.526.488-.932.325-1.68.761-2.244 1.308a4.709 4.709 0 0 0-1.19 1.84 6.757 6.757 0 0 0-.344 2.129c0 .798.137 1.47.412 2.018.29.532.68.96 1.168 1.286.488.325 1.06.554 1.717.687.656.133 1.366.2 2.129.2.412 0 .847-.023 1.305-.067.457-.03.908-.081 1.351-.155.443-.089.862-.2 1.259-.333a4.88 4.88 0 0 0 1.053-.488l.596-2.372h-3.755a2.831 2.831 0 0 1-.389.798 2.901 2.901 0 0 1-.504.599 2.041 2.041 0 0 1-.527.377.991.991 0 0 1-.458.133c-.183 0-.328-.045-.434-.133a1.423 1.423 0 0 1-.23-.355 2.261 2.261 0 0 1-.091-.466 4.542 4.542 0 0 1-.023-.443c0-.237.007-.503.023-.798Zm2.403-4.745c.215 0 .398.081.55.244.153.162.229.473.229.93 0 .164-.015.34-.046.533-.015.192-.038.37-.068.532l-.091.555h-2.611c.091-.37.206-.717.344-1.043.136-.34.289-.635.457-.886a2.3 2.3 0 0 1 .55-.621 1.11 1.11 0 0 1 .686-.244Z" clip-rule="evenodd"/></svg>