<svg xmlns="http://www.w3.org/2000/svg" width="500" height="500" fill="none"><path fill="#3B4A70" d="M330.676 215.621h-161.28c-19.012 0-34.445 15.434-34.445 34.445 0 19.011 15.433 34.445 34.445 34.445h161.28c19.012 0 34.445-15.434 34.445-34.445 0-19.011-15.433-34.445-34.445-34.445Z"/><path fill="#3B4A70" d="M341.128 95.734c-5.05-.35-10.031-.42-24.342-.42H183.285c-14.241 0-19.292 0-24.343.42-69.872 5.402-124.52 60.051-129.923 129.853-.42 5.191-.42 10.312-.42 24.413s0 19.292.42 24.343c5.402 69.872 60.051 124.521 129.853 129.922 5.121.421 10.242.421 24.343.421h133.5c14.101 0 19.222 0 24.343-.421 69.872-5.401 124.521-60.05 129.923-129.852.421-5.121.421-10.242.421-24.343 0-14.101 0-19.222-.421-24.343C465.579 155.855 411 101.206 341.058 95.804l.07-.07Zm61.244 173.347c-2.736 35.778-30.727 63.769-66.575 66.505-2.456.211-7.436.211-19.011.211H183.285c-11.575 0-16.556 0-19.081-.211-35.778-2.736-63.769-30.727-66.575-66.645-.21-2.455-.21-7.436-.21-19.011s0-16.556.21-19.082c2.736-35.778 30.727-63.768 66.504-66.504 2.596-.211 7.787-.211 19.082-.211h133.5c11.295 0 16.486 0 19.082.211 35.778 2.736 63.768 30.726 66.575 66.574.21 2.526.21 7.437.21 19.082s0 16.556-.21 19.081Z"/></svg>