<svg xmlns="http://www.w3.org/2000/svg" width="77" height="18" fill="none"><path fill="#DEDEE2" d="M.309.804V.256h2.61L13.385 12.92h.025L13.24.925 11.372.804V.256h4.513v.548l-1.878.121.134 16.953h-.744L2.93 5.176h-.024l.17 11.789 1.867.121v.548H.431v-.548l1.878-.121L2.175.925.309.804ZM16.765 11.52c0-.633.06-1.25.183-1.85a7.095 7.095 0 0 1 .598-1.754 5.996 5.996 0 0 1 1.012-1.474c.398-.422.89-.759 1.476-1.01a4.846 4.846 0 0 1 1.964-.39c.675 0 1.28.097 1.818.292.536.187.984.45 1.341.792.358.34.655.759.89 1.254a5.9 5.9 0 0 1 .501 1.595c.106.569.159 1.194.159 1.876l-.33.304h-6.49v.743c0 3.54 1.01 5.31 3.026 5.31 1.431 0 2.574-.714 3.428-2.143l.476.292C25.767 17.119 24.275 18 22.34 18c-1.87 0-3.27-.577-4.197-1.73-.919-1.152-1.378-2.736-1.378-4.75Zm3.123-.913 3.94-.158a20.4 20.4 0 0 0 .036-1.193c0-1.178-.142-2.083-.427-2.716-.276-.633-.74-.95-1.39-.95-.39 0-.728.13-1.013.39-.276.251-.492.617-.646 1.096a9.512 9.512 0 0 0-.354 1.57 20.51 20.51 0 0 0-.146 1.961Zm7.429-4.676v-.524h2.074V2.716l1.049-.11 1.72-.45.232.353v2.898h2.671v.524l-2.671.11v8.573c0 .496.056.91.17 1.243.122.324.277.548.464.67.195.121.35.198.463.23.122.033.248.05.379.05.252 0 .492-.053.72-.159.235-.113.447-.276.634-.487.195-.211.353-.402.475-.572.122-.179.26-.394.415-.646l.525.317c-.431.714-.805 1.234-1.123 1.559-.772.787-1.663 1.181-2.671 1.181-.382 0-.724-.029-1.025-.085a2.97 2.97 0 0 1-.915-.33 2.38 2.38 0 0 1-.793-.681c-.211-.292-.386-.69-.524-1.194-.13-.511-.195-1.108-.195-1.79V6.04l-2.074-.109Zm9.076-.001v-.523h1.794c.008-.714.073-1.36.195-1.936.122-.577.272-1.047.451-1.413a3.59 3.59 0 0 1 .659-.962 3.35 3.35 0 0 1 .756-.609c.236-.138.5-.243.793-.316.293-.082.529-.13.708-.147.178-.016.374-.024.585-.024.87 0 1.545.195 2.025.585.48.381.72.868.72 1.461 0 .398-.13.739-.39 1.023-.253.284-.594.426-1.025.426-.423 0-.76-.142-1.013-.426a1.453 1.453 0 0 1-.366-.974c0-.228.045-.455.134-.682.098-.236.228-.406.39-.512V.852c-.024-.08-.097-.15-.219-.207a.799.799 0 0 0-.402-.097.848.848 0 0 0-.562.183c-.138.121-.24.296-.304.523a4.01 4.01 0 0 0-.11.621 8.206 8.206 0 0 0-.025.695v2.837h2.94v.524l-2.94.122v10.96l1.745.122v.5h-5.99v-.5l1.245-.122V6.053l-1.794-.122Z"/><path fill="#DEDEE2" d="M44.25 1.218v-.5L46.8.452 48.52 0l.22.353v16.66l1.256.122v.5h-5.502v-.5l1.257-.122V1.218h-1.5Zm6.405 5.163v-.499l2.55-.268 1.72-.45.231.353v8.793c0 .479.049.889.146 1.23.106.34.22.596.342.767.13.162.289.292.476.39.195.089.345.142.451.158.106.008.224.012.354.012.57 0 1.09-.357 1.561-1.072.48-.722.72-1.607.72-2.655V6.381h-1.5v-.499l2.55-.268 1.72-.45.219.353v11.496l1.256.122v.5h-3.83l-.366-1.876h-.049c-.211.308-.41.572-.598.791a8.267 8.267 0 0 1-.707.695 3.05 3.05 0 0 1-.988.56 3.51 3.51 0 0 1-1.184.195c-.292 0-.577-.025-.853-.073a3.873 3.873 0 0 1-.94-.317 3.02 3.02 0 0 1-.89-.67c-.244-.284-.456-.678-.635-1.181-.17-.512-.256-1.108-.256-1.79V6.38h-1.5Zm13.76 11.254v-.5l1.28-.122 3.1-4.737-3.904-6.235-1.196-.134v-.5h5.819v.5l-1.317.134 2.5 3.982 2.538-3.982-1.355-.134v-.5h3.428v.5l-1.28.134-2.94 4.591 4.025 6.382 1.196.121v.5H70.44v-.5l1.33-.122-2.574-4.104-2.708 4.104 1.354.122v.5h-3.428Z"/></svg>