<svg xmlns="http://www.w3.org/2000/svg" width="140" height="32" fill="none"><path fill="#DEDEE2" fill-rule="evenodd" d="M7.813 15a6.126 6.126 0 0 1 7.721.761 6.102 6.102 0 0 1 1.793 4.314 6.093 6.093 0 0 1-1.03 3.39 6.115 6.115 0 0 1-2.745 2.247 6.133 6.133 0 0 1-6.665-1.322 6.099 6.099 0 0 1-1.326-6.65A6.106 6.106 0 0 1 7.813 15Zm1.133 8.457a4.084 4.084 0 0 0 5.149-.506 4.064 4.064 0 0 0-1.323-6.635 4.086 4.086 0 0 0-4.444.882 4.065 4.065 0 0 0 .618 6.26ZM17.99 5.641l3.797 10.704a11.164 11.164 0 0 1-1.458 10.234 11.232 11.232 0 0 1-18.376-.203 11.171 11.171 0 0 1-1.23-10.264l3.76-10.616a7.121 7.121 0 0 1 2.64-3.464 7.147 7.147 0 0 1 8.303.09 7.12 7.12 0 0 1 2.564 3.52ZM6.948 28.177a9.2 9.2 0 0 0 4.263 1.051 9.2 9.2 0 0 0 4.216-1.027 9.175 9.175 0 0 0 3.273-2.843 9.15 9.15 0 0 0 1.163-8.335l-3.8-10.714-.007-.023a5.086 5.086 0 0 0-1.829-2.52 5.104 5.104 0 0 0-7.822 2.408L2.641 16.8a9.141 9.141 0 0 0 1.02 8.47 9.174 9.174 0 0 0 3.287 2.906ZM109.97 6.515h-2.854v7.835h-.063c-.947-1.12-2.268-1.681-3.938-1.681a5.85 5.85 0 0 0-2.38.486 5.652 5.652 0 0 0-1.907 1.332 6.129 6.129 0 0 0-1.259 2.056 7.134 7.134 0 0 0-.46 2.591c0 .76.087 1.47.286 2.143.2.672.473 1.258.835 1.769.361.51.785.947 1.284 1.32.498.374 1.046.66 1.67.847.623.2 1.271.287 1.956.287 1.745 0 3.103-.623 4.051-1.869h.049v1.67h2.73V6.514Zm-3.789 15.347c-.698.698-1.57 1.047-2.592 1.047-1.06 0-1.919-.349-2.58-1.047-.673-.697-.997-1.607-.997-2.715 0-.573.087-1.11.274-1.607a3.42 3.42 0 0 1 .773-1.234 3.592 3.592 0 0 1 1.134-.772 3.78 3.78 0 0 1 1.408-.274c1.06 0 1.932.374 2.605 1.109.673.747 1.022 1.669 1.022 2.778 0 1.12-.349 2.018-1.047 2.715Zm-64.2-9.006h-2.854v1.494h-.05c-.947-1.12-2.23-1.681-3.85-1.681-.848 0-1.645.162-2.38.486a5.651 5.651 0 0 0-1.908 1.332 6.129 6.129 0 0 0-1.258 2.056 7.134 7.134 0 0 0-.461 2.591c0 .76.087 1.47.286 2.143.2.672.474 1.258.835 1.769.362.51.785.947 1.284 1.32.498.374 1.047.66 1.67.847.623.2 1.271.287 1.956.287 1.695 0 3.016-.623 3.964-1.869h.037v1.67h2.73V12.855Zm-3.776 9.006c-.685.698-1.52 1.047-2.505 1.047-1.06 0-1.92-.349-2.58-1.047-.672-.697-.997-1.607-.997-2.715 0-.573.088-1.11.275-1.607a3.42 3.42 0 0 1 .772-1.234 3.59 3.59 0 0 1 1.134-.772 3.77 3.77 0 0 1 1.409-.274c1.01 0 1.844.374 2.517 1.121.673.747 1.01 1.67 1.01 2.766 0 1.108-.35 2.018-1.035 2.715Zm17.623-9.006H52.75l-3.19 8.87h-.05l-3.253-8.87h-3.053l4.96 12.444h2.73l4.934-12.445ZM62.21 25.5a7.22 7.22 0 0 1-2.68-.486c-.822-.324-1.52-.76-2.08-1.333a5.988 5.988 0 0 1-1.31-2.043c-.323-.785-.473-1.632-.473-2.541 0-1.221.262-2.317.798-3.29.536-.97 1.308-1.73 2.305-2.291.997-.56 2.144-.847 3.44-.847 1.259 0 2.38.274 3.377.81a5.878 5.878 0 0 1 2.318 2.267c.549.984.835 2.105.835 3.35 0 1.246-.286 2.368-.835 3.34a5.828 5.828 0 0 1-2.33 2.267c-.997.535-2.119.797-3.365.797Zm0-2.591c1.022 0 1.882-.349 2.58-1.072.698-.722 1.047-1.632 1.047-2.74 0-1.121-.35-2.043-1.035-2.766-.698-.71-1.558-1.071-2.592-1.071-1.084 0-1.956.374-2.63 1.096-.673.735-1.01 1.644-1.01 2.74 0 1.084.337 1.994 1.023 2.716.685.735 1.558 1.096 2.617 1.096Zm10.856 1.794c.96.535 2.044.797 3.265.797 1.147 0 2.181-.2 3.116-.61.935-.4 1.695-.935 2.268-1.583l-1.97-1.744c-.136.15-.286.3-.448.424a4.268 4.268 0 0 1-.548.374c-.2.112-.411.211-.636.286a4.219 4.219 0 0 1-1.52.262c-.723 0-1.371-.15-1.932-.474a3.35 3.35 0 0 1-1.308-1.358c-.312-.573-.461-1.245-.461-2.005 0-.748.149-1.408.46-1.98a3.287 3.287 0 0 1 1.297-1.346c.548-.324 1.196-.486 1.931-.486a4.19 4.19 0 0 1 1.783.374c.523.249.984.598 1.358 1.034l1.944-1.682a5.955 5.955 0 0 0-2.318-1.72 7.449 7.449 0 0 0-2.916-.597c-1.246 0-2.368.274-3.34.81a5.9 5.9 0 0 0-2.28 2.28c-.55.97-.823 2.092-.823 3.338 0 1.258.261 2.379.81 3.35.548.972 1.296 1.732 2.268 2.256Zm19.355-11.848h2.854V25.3h-2.729v-1.669h-.038c-.947 1.246-2.267 1.869-3.962 1.869a6.354 6.354 0 0 1-1.957-.287 5.281 5.281 0 0 1-1.67-.847 5.87 5.87 0 0 1-1.284-1.32 5.952 5.952 0 0 1-.835-1.77 7.483 7.483 0 0 1-.287-2.142c0-.922.15-1.781.462-2.591a6.127 6.127 0 0 1 1.258-2.056 5.652 5.652 0 0 1 1.907-1.332 5.852 5.852 0 0 1 2.38-.486c1.62 0 2.904.56 3.852 1.681h.05v-1.495Zm-3.427 10.053c.985 0 1.82-.348 2.505-1.046.686-.697 1.035-1.607 1.035-2.715 0-1.097-.337-2.018-1.01-2.766-.673-.747-1.508-1.121-2.517-1.121-.499 0-.973.1-1.409.274-.436.187-.81.448-1.134.772a3.414 3.414 0 0 0-.772 1.233 4.534 4.534 0 0 0-.275 1.608c0 1.108.325 2.018.997 2.715.66.698 1.52 1.047 2.58 1.047ZM118.47 25.5c-.972 0-1.857-.162-2.679-.486-.823-.324-1.521-.76-2.082-1.333a5.995 5.995 0 0 1-1.308-2.043c-.324-.785-.474-1.632-.474-2.541 0-1.221.262-2.317.798-3.29.536-.97 1.308-1.73 2.305-2.291.998-.56 2.144-.847 3.44-.847 1.259 0 2.381.274 3.378.81a5.884 5.884 0 0 1 2.318 2.267c.548.984.835 2.105.835 3.35 0 1.246-.287 2.368-.835 3.34a5.832 5.832 0 0 1-2.331 2.267c-.997.535-2.119.797-3.365.797Zm0-2.591c1.022 0 1.882-.349 2.58-1.072.698-.722 1.047-1.632 1.047-2.74 0-1.121-.349-2.043-1.035-2.766-.698-.71-1.558-1.071-2.592-1.071-1.084 0-1.956.374-2.63 1.096-.672.735-1.009 1.644-1.009 2.74 0 1.084.337 1.994 1.022 2.716.685.735 1.558 1.096 2.617 1.096Zm11.629 2.105a7.22 7.22 0 0 0 2.68.486c1.245 0 2.367-.262 3.364-.797a5.83 5.83 0 0 0 2.33-2.268c.549-.971.835-2.093.835-3.338 0-1.246-.286-2.367-.835-3.351a5.878 5.878 0 0 0-2.318-2.268c-.996-.535-2.117-.81-3.376-.81-1.296 0-2.443.287-3.441.848-.997.56-1.769 1.32-2.305 2.292-.536.972-.798 2.068-.798 3.289 0 .909.15 1.756.474 2.54a5.99 5.99 0 0 0 1.308 2.044c.561.573 1.26 1.009 2.082 1.333Zm5.258-3.177c-.698.723-1.557 1.072-2.578 1.072-1.061 0-1.933-.362-2.618-1.097-.686-.722-1.021-1.632-1.021-2.715 0-1.097.335-2.006 1.008-2.741.674-.722 1.546-1.096 2.631-1.096 1.033 0 1.894.361 2.592 1.071.684.723 1.033 1.645 1.033 2.766 0 1.108-.349 2.018-1.047 2.74Z" clip-rule="evenodd"/></svg>