<svg xmlns="http://www.w3.org/2000/svg" width="194" height="29" fill="none"><path stroke="#F40" stroke-linecap="square" stroke-width=".934" d="M7.468 9a10.065 10.065 0 0 0-.509 3.185c0 4.69 3.137 8.492 7.006 8.492 3.87 0 7.006-3.802 7.006-8.492 0-1.127-.18-2.202-.51-3.185m-3.664 15.503S16.001 21 13.878 21s-2.919 3.503-2.919 3.503"/><path stroke="#F40" stroke-linecap="square" stroke-width=".934" d="M21.413 6.604c.34 1.946-1.191 3.234-1.191 3.234s-1.873-.657-2.213-2.603C17.668 5.289 19.199 4 19.199 4s1.873.657 2.213 2.604Zm-8.454 3.98.584-.584h.584v5.838m1.167 0H12.96m11.612-1.172c-1.496 1.479-3.522.888-3.522.888s-.53-2.07.966-3.549c1.497-1.48 3.523-.889 3.523-.889s.53 2.07-.967 3.55ZM20.983 21.3c-1.751-.672-2.024-2.557-2.024-2.557s1.479-1.212 3.23-.54c1.752.672 2.025 2.557 2.025 2.557s-1.48 1.212-3.23.54Zm-13.793 0c1.75-.672 2.024-2.557 2.024-2.557s-1.48-1.212-3.23-.54c-1.752.672-2.025 2.557-2.025 2.557s1.479 1.212 3.23.54Zm-4.174-6.634c1.497 1.479 3.523.888 3.523.888s.53-2.07-.967-3.549c-1.496-1.48-3.522-.889-3.522-.889s-.53 2.07.966 3.55Zm2.992-8.062C5.668 8.55 7.2 9.838 7.2 9.838s1.873-.657 2.214-2.603C9.753 5.289 8.222 4 8.222 4s-1.873.657-2.214 2.604Z"/><path fill="#DEDEE2" d="M43 1.806h3.794a2.25 2.25 0 0 1 1.666.686c.462.462.7 1.008.7 1.666v.728c0 .672-.28 1.274-.84 1.82.56.56.84 1.162.84 1.82v.714c0 .658-.224 1.218-.686 1.68a2.281 2.281 0 0 1-1.68.686H43a.58.58 0 0 1-.56-.56v-8.68a.58.58 0 0 1 .56-.56Zm5.04 7.434v-.714c0-.686-.56-1.26-1.246-1.26H43.56v3.22h3.234c.686 0 1.246-.56 1.246-1.246Zm0-4.354v-.728c0-.672-.56-1.232-1.246-1.232H43.56v3.206h3.234c.686 0 1.246-.56 1.246-1.246Zm8.541-1.96h-5.04v3.22h5.04c.728-.056.728 1.176 0 1.12h-5.04v3.22h5.04c.728-.056.728 1.176 0 1.12h-5.6a.544.544 0 0 1-.56-.56v-8.68a.58.58 0 0 1 .56-.56h5.6c.728-.056.728 1.176 0 1.12Zm7.435 1.232c0-.672-.574-1.232-1.26-1.232h-1.988c-.672 0-1.246.56-1.246 1.246-.014 1.26 2.044 1.82 3.626 2.548 1.106.49 1.988 1.344 1.988 2.506 0 .658-.238 1.218-.7 1.68-.462.462-1.022.7-1.68.7h-1.974a2.281 2.281 0 0 1-1.68-.686 2.294 2.294 0 0 1-.7-1.68c-.056-.728 1.176-.728 1.12 0a1.26 1.26 0 0 0 1.26 1.246h1.988c.686 0 1.246-.546 1.246-1.26.014-1.26-2.044-1.82-3.626-2.534-1.106-.504-1.988-1.358-1.988-2.52 0-.658.224-1.204.686-1.666a2.294 2.294 0 0 1 1.68-.7h1.988c.658 0 1.218.224 1.68.686.462.462.7 1.008.7 1.666.056.728-1.176.728-1.12 0Zm5.167 6.888v-8.12h-1.68v1.12c.056.728-1.175.728-1.12 0v-1.68a.58.58 0 0 1 .56-.56h5.6c.322 0 .56.238.56.56v1.68c.056.728-1.175.728-1.12 0v-1.12h-1.68v8.12c0 .322-.237.56-.56.56a.58.58 0 0 1-.56-.56Zm13.723-9.24H86.7c.658 0 1.204.238 1.666.7.462.462.7 1.008.7 1.666V4.9c0 .658-.224 1.218-.686 1.68a2.281 2.281 0 0 1-1.68.686h-3.234v3.78c.056.728-1.176.728-1.12 0v-8.68a.58.58 0 0 1 .56-.56Zm5.04 3.094v-.728c0-.686-.56-1.246-1.246-1.246h-3.234v3.22H86.7c.686 0 1.246-.56 1.246-1.246Zm2.94-3.094h3.795c.658 0 1.204.238 1.666.7.462.462.7 1.008.7 1.666V4.9c0 .658-.224 1.218-.686 1.68a2.281 2.281 0 0 1-1.68.686h-1.582l3.752 3.374c.238.21.252.546.042.784a.541.541 0 0 1-.784.028l-4.662-4.186v3.78c.056.728-1.176.728-1.12 0v-8.68a.58.58 0 0 1 .56-.56Zm5.04 3.094v-.728c0-.686-.56-1.246-1.245-1.246h-3.234v3.22h3.234c.686 0 1.246-.56 1.246-1.246Zm2.382 4.326V4.158c0-1.33 1.036-2.352 2.366-2.352h1.988a2.351 2.351 0 0 1 2.366 2.352v5.068a2.357 2.357 0 0 1-2.366 2.38h-1.988a2.357 2.357 0 0 1-2.366-2.38Zm4.354-6.3h-1.988c-.672 0-1.246.56-1.246 1.232v5.068c0 .686.574 1.26 1.246 1.26h1.988a1.26 1.26 0 0 0 1.246-1.26V4.158c0-.672-.56-1.232-1.246-1.232Zm4.187-1.12h3.794a2.25 2.25 0 0 1 1.666.686c.462.462.7 1.008.7 1.666v5.068c0 .658-.238 1.232-.7 1.694a2.25 2.25 0 0 1-1.666.686h-3.794a.58.58 0 0 1-.56-.56v-8.68a.58.58 0 0 1 .56-.56Zm3.794 1.12h-3.234v7.56h3.234a1.26 1.26 0 0 0 1.246-1.26V4.158c0-.672-.56-1.232-1.246-1.232Zm4.747-.56v6.86c0 .686.574 1.26 1.246 1.26h1.988a1.26 1.26 0 0 0 1.246-1.26v-6.86a.58.58 0 0 1 .56-.56c.322 0 .56.238.56.56v6.86a2.357 2.357 0 0 1-2.366 2.38h-1.988a2.357 2.357 0 0 1-2.366-2.38v-6.86a.58.58 0 0 1 .56-.56c.322 0 .56.238.56.56Zm12.461 1.806c0-.686-.56-1.246-1.246-1.246h-1.974c-.686 0-1.26.56-1.26 1.232V9.24c0 .672.602 1.246 1.26 1.246h1.974c.658 0 1.246-.602 1.246-1.26a.58.58 0 0 1 .56-.56c.322 0 .56.238.56.56a2.357 2.357 0 0 1-2.366 2.38h-1.974a2.357 2.357 0 0 1-2.38-2.366V4.158c0-1.344 1.05-2.352 2.38-2.352h1.974a2.337 2.337 0 0 1 2.366 2.366c0 .322-.238.56-.56.56a.562.562 0 0 1-.56-.56Zm5.181 6.874v-8.12h-1.68v1.12c.056.728-1.176.728-1.12 0v-1.68a.58.58 0 0 1 .56-.56h5.6c.322 0 .56.238.56.56v1.68c.056.728-1.176.728-1.12 0v-1.12h-1.68v8.12c0 .322-.238.56-.56.56a.58.58 0 0 1-.56-.56Zm13.722-9.24h3.794a2.25 2.25 0 0 1 1.666.686c.462.462.7 1.008.7 1.666v5.068c0 .658-.238 1.232-.7 1.694a2.25 2.25 0 0 1-1.666.686h-3.794a.58.58 0 0 1-.56-.56v-8.68a.58.58 0 0 1 .56-.56Zm3.794 1.12h-3.234v7.56h3.234a1.26 1.26 0 0 0 1.246-1.26V4.158c0-.672-.56-1.232-1.246-1.232Zm9.788 0h-5.04v3.22h5.04c.728-.056.728 1.176 0 1.12h-5.04v3.22h5.04c.728-.056.728 1.176 0 1.12h-5.6a.544.544 0 0 1-.56-.56v-8.68a.58.58 0 0 1 .56-.56h5.6c.728-.056.728 1.176 0 1.12Zm7.435 1.232c0-.672-.574-1.232-1.26-1.232h-1.988c-.672 0-1.246.56-1.246 1.246-.014 1.26 2.044 1.82 3.626 2.548 1.106.49 1.988 1.344 1.988 2.506 0 .658-.238 1.218-.7 1.68-.462.462-1.022.7-1.68.7h-1.974a2.281 2.281 0 0 1-1.68-.686 2.294 2.294 0 0 1-.7-1.68c-.056-.728 1.176-.728 1.12 0a1.26 1.26 0 0 0 1.26 1.246h1.988c.686 0 1.246-.546 1.246-1.26.014-1.26-2.044-1.82-3.626-2.534-1.106-.504-1.988-1.358-1.988-2.52 0-.658.224-1.204.686-1.666a2.294 2.294 0 0 1 1.68-.7h1.988c.658 0 1.218.224 1.68.686.462.462.7 1.008.7 1.666.056.728-1.176.728-1.12 0Zm8.527-1.232h-2.24v7.56h2.24c.728-.056.728 1.176 0 1.12h-5.6a.544.544 0 0 1-.56-.56.58.58 0 0 1 .56-.56h2.24v-7.56h-2.24a.544.544 0 0 1-.56-.56.58.58 0 0 1 .56-.56h5.6c.728-.056.728 1.176 0 1.12Zm7.981 3.22a.58.58 0 0 1 .56.56v2.52a2.357 2.357 0 0 1-2.366 2.38h-1.974a2.357 2.357 0 0 1-2.38-2.366V4.158c0-1.344 1.05-2.352 2.38-2.352h1.974a2.337 2.337 0 0 1 2.366 2.366c0 .322-.238.56-.56.56a.562.562 0 0 1-.56-.56c0-.686-.56-1.246-1.246-1.246h-1.974c-.686 0-1.26.56-1.26 1.232V9.24a1.26 1.26 0 0 0 1.26 1.246h1.974a1.26 1.26 0 0 0 1.246-1.26v-1.96h-1.68a.58.58 0 0 1-.56-.56c0-.322.238-.56.56-.56h2.24Zm2.871-4.06 4.55 7.14v-6.86a.58.58 0 0 1 .56-.56c.322 0 .56.238.56.56v8.68c0 .322-.238.56-.56.56-.21 0-.378-.098-.504-.294l-4.536-7.126v6.86c.056.728-1.176.728-1.12 0v-8.68a.58.58 0 0 1 .56-.56c.21 0 .364.098.49.28ZM41.802 26.606l3.575-10.185h2.707l3.575 10.185h-2.33l-.712-2.221H44.81l-.739 2.221h-2.27Zm3.575-3.903h2.693l-.342-1.053c-.314-1.039-.628-2.078-.99-3.342-.37 1.264-.684 2.303-1.012 3.342l-.349 1.053Zm7.783 3.903-2.735-10.185h2.243l1.196 5.059c.198.895.383 1.79.554 2.686a75.38 75.38 0 0 1 .587-2.686l1.265-5.06h2.147l1.25 5.06c.212.888.41 1.777.588 2.659.171-.882.356-1.77.554-2.66l1.197-5.058h2.248l-2.74 10.185h-2.345l-1.45-5.557a55.416 55.416 0 0 1-.382-1.702c-.137.642-.253 1.203-.383 1.702l-1.436 5.557H53.16Zm9.854 0 3.575-10.185h2.707l3.575 10.185h-2.33l-.712-2.221h-3.807l-.739 2.221h-2.27Zm3.575-3.903h2.694l-.342-1.053c-.315-1.039-.63-2.078-.992-3.342a156.494 156.494 0 0 1-1.011 3.342l-.349 1.053Zm6.976 3.903V16.421h4.075c2.296 0 3.732 1.292 3.732 3.343 0 1.346-.677 2.358-1.818 2.884l2.044 3.958h-2.256l-1.805-3.561h-1.866v3.561h-2.106Zm2.106-5.25h1.845c1.108 0 1.798-.622 1.798-1.592 0-.971-.69-1.593-1.804-1.593h-1.84v3.185Zm10.455 5.25h-3.595V16.421h3.636c3.063 0 4.99 1.962 4.99 5.086 0 3.137-1.906 5.1-5.03 5.1Zm-1.49-1.77h1.381c2.058 0 3.022-1.183 3.022-3.33 0-2.139-.978-3.315-3.001-3.315h-1.402v6.645Zm10.227 1.77v-1.545l3.733-3.192c.902-.793 1.565-1.374 1.565-2.33 0-.972-.643-1.6-1.64-1.6-1.094 0-1.764.745-1.764 1.982h-1.935c0-2.215 1.436-3.664 3.698-3.664 2.092 0 3.596 1.244 3.596 3.172 0 1.428-.827 2.379-2.249 3.595l-2.16 1.88v.014h4.457v1.688h-7.3Zm12.247.164c-2.564 0-4.122-2.016-4.122-5.25 0-3.24 1.558-5.263 4.122-5.263 2.563 0 4.122 2.016 4.122 5.263 0 3.234-1.559 5.25-4.122 5.25Zm0-1.681c1.326 0 2.139-1.354 2.139-3.569 0-2.221-.813-3.581-2.139-3.581-1.326 0-2.14 1.36-2.14 3.581 0 2.215.814 3.569 2.14 3.569Zm4.959 1.517v-1.545l3.733-3.192c.902-.793 1.565-1.374 1.565-2.33 0-.972-.642-1.6-1.64-1.6-1.094 0-1.764.745-1.764 1.982h-1.935c0-2.215 1.436-3.664 3.699-3.664 2.091 0 3.595 1.244 3.595 3.172 0 1.428-.827 2.379-2.249 3.595l-2.16 1.88v.014h4.457v1.688h-7.301Zm12.391-10.185v10.185h-2.024v-8.25h-.013l-2.393 1.517v-1.846l2.522-1.606h1.908Z"/></svg>