<svg xmlns="http://www.w3.org/2000/svg" width="164" height="44" fill="none"><path fill="#929298" d="M99.219 20.606c-2.42 0-4.091-1.837-4.091-4.521 0-2.702 1.666-4.532 4.09-4.532 1.914 0 3.391 1.189 3.697 3.06h-1.33c-.259-1.194-1.16-1.865-2.355-1.865-1.73 0-2.79 1.342-2.79 3.337 0 1.984 1.06 3.326 2.79 3.326 1.189 0 2.084-.666 2.361-1.854h1.324c-.3 1.866-1.783 3.049-3.696 3.049Zm7.993 0c-2.101 0-3.396-1.13-3.396-2.985h1.306c.006 1.16.777 1.843 2.09 1.843 1.189 0 1.972-.548 1.972-1.401 0-.677-.465-1.066-1.684-1.354l-.959-.23c-1.772-.418-2.549-1.153-2.549-2.366 0-1.542 1.242-2.56 3.126-2.56 1.889 0 3.084 1.053 3.137 2.766h-1.265c-.065-1.006-.783-1.624-1.89-1.624-1.059 0-1.807.559-1.807 1.353 0 .636.471 1.001 1.678 1.29l.947.223c1.76.418 2.573 1.177 2.573 2.431 0 1.578-1.289 2.614-3.279 2.614Zm7.558 0c-2.102 0-3.397-1.13-3.397-2.985h1.307c.006 1.16.777 1.843 2.09 1.843 1.189 0 1.972-.548 1.972-1.401 0-.677-.465-1.066-1.684-1.354l-.959-.23c-1.772-.418-2.549-1.153-2.549-2.366 0-1.542 1.242-2.56 3.126-2.56 1.889 0 3.084 1.053 3.137 2.766h-1.266c-.064-1.006-.782-1.624-1.889-1.624-1.06 0-1.807.559-1.807 1.353 0 .636.471 1.001 1.677 1.29l.948.223c1.76.418 2.572 1.177 2.572 2.431 0 1.578-1.289 2.614-3.278 2.614Zm10.23-.142h-2.837v-8.77h2.925c2.584 0 4.156 1.66 4.156 4.373 0 2.726-1.566 4.397-4.244 4.397Zm-1.531-1.136h1.448c2.043 0 3.014-1.218 3.014-3.26 0-2.031-.971-3.238-2.925-3.238h-1.537v6.498Zm7.052 1.136v-8.77h5.898v1.148h-4.591v2.584h4.249v1.136h-4.249v2.755h4.591v1.147h-5.898Zm10.136.142c-2.102 0-3.396-1.13-3.396-2.985h1.306c.006 1.16.777 1.843 2.09 1.843 1.189 0 1.972-.548 1.972-1.401 0-.677-.465-1.066-1.684-1.354l-.959-.23c-1.772-.418-2.549-1.153-2.549-2.366 0-1.542 1.242-2.56 3.126-2.56 1.889 0 3.084 1.053 3.137 2.766h-1.266c-.064-1.006-.782-1.624-1.889-1.624-1.06 0-1.807.559-1.807 1.353 0 .636.471 1.001 1.677 1.29l.948.223c1.76.418 2.572 1.177 2.572 2.431 0 1.578-1.289 2.614-3.278 2.614Zm5.827-8.912v8.77h-1.307v-8.77h1.307Zm5.339 8.912c-2.378 0-4.062-1.86-4.062-4.521 0-2.702 1.707-4.532 4.056-4.532 1.907 0 3.437 1.23 3.714 3.013h-1.324c-.248-1.083-1.166-1.818-2.372-1.818-1.666 0-2.761 1.336-2.761 3.337 0 1.99 1.101 3.326 2.766 3.326 1.378 0 2.449-.942 2.461-2.337h-2.172v-1.089h3.461v1.006c0 2.09-1.613 3.615-3.767 3.615Zm5.091-.142v-8.77h1.448l3.349 5.303c.206.33.595.995.948 1.62a57.49 57.49 0 0 1-.035-1.702v-5.221h1.312v8.77h-1.459l-2.996-4.738a76.755 76.755 0 0 1-1.307-2.184c.041 1.03.047 1.79.047 2.178v4.744h-1.307ZM94.192 32.519l4.532-8.77h2.331l1.625 8.77h-1.943l-.3-1.913h-3.273l-.953 1.913h-2.02Zm3.696-3.361h2.32l-.142-.907c-.123-.895-.247-1.79-.376-2.878a142.44 142.44 0 0 1-1.348 2.878l-.454.907Zm6.198 3.361-.9-8.77h1.907l.312 4.355c.041.771.071 1.542.088 2.313a95.61 95.61 0 0 1 .895-2.313l1.807-4.356h1.848l.359 4.356c.059.765.094 1.524.124 2.29.277-.765.559-1.525.859-2.29l1.754-4.356h1.954l-3.814 8.77h-2.019l-.453-4.785c-.041-.43-.065-.912-.088-1.465-.212.553-.389 1.035-.571 1.465l-2.031 4.786h-2.031Zm8.612 0 4.532-8.77h2.331l1.625 8.77h-1.943l-.3-1.913h-3.273l-.953 1.913h-2.019Zm3.696-3.361h2.319l-.141-.907c-.123-.895-.247-1.79-.377-2.878a143.273 143.273 0 0 1-1.347 2.878l-.454.907Zm5.51 3.361 1.454-8.77h3.49c1.972 0 3.043 1.112 2.755 2.878-.195 1.16-.924 2.03-1.984 2.483l1.195 3.409h-1.86l-1.048-3.067h-1.683l-.506 3.067h-1.813Zm2.56-4.52h1.589c.954 0 1.637-.56 1.778-1.396.135-.836-.371-1.348-1.33-1.348h-1.584l-.453 2.743Zm8.694 4.52h-3.414l1.454-8.77h3.031c2.643 0 4.115 1.689 3.667 4.379-.447 2.701-2.048 4.39-4.738 4.39Zm-1.348-1.525h1.189c1.772 0 2.772-1.018 3.078-2.866.301-1.843-.264-2.855-2.007-2.855h-1.312l-.948 5.721Zm9.771 1.666c-2.29 0-3.455-1.136-3.143-3.02h1.736c-.135.966.436 1.53 1.548 1.53 1.019 0 1.778-.458 1.89-1.153.094-.553-.265-.883-1.342-1.124l-.889-.206c-1.678-.377-2.419-1.219-2.202-2.525.254-1.543 1.707-2.555 3.656-2.555 2.042 0 3.19 1.065 2.949 2.831h-1.69c.071-.847-.435-1.342-1.377-1.342-.906 0-1.63.465-1.736 1.119-.089.53.253.824 1.289 1.06l.812.182c1.807.4 2.543 1.206 2.319 2.584-.271 1.636-1.707 2.619-3.82 2.619Z"/><path fill="#fff" d="M14.439 29.118c.983 0 1.757.766 1.757 1.738v1.619H9.97C4.4 32.21.05 27.705.05 22.199V11.864h1.758c.954 0 1.758.795 1.758 1.767v8.539c0 3.886 3.038 6.948 6.91 6.948h3.963Zm20.4-16.429c.536-.53 1.25-.795 1.995-.795h3.635l-11.26 10.894v8.038c0 .913-.745 1.649-1.668 1.649h-1.847v-9.687l-.626-.618 9.77-9.481Zm-16.741-.795c.744 0 1.43.265 1.966.795l4.677 4.534-1.043 1.001c-.358.354-.834.53-1.37.53-.507 0-.983-.177-1.34-.53l-6.524-6.33h3.634Zm34.282 0c2.77 0 5.362 1.03 7.328 2.944 1.996 1.973 3.098 4.564 3.098 7.361 0 5.683-4.677 10.305-10.426 10.305h-.387c-.507 0-1.758-.03-4.796-.03h-4.35v-1.618c0-.972.775-1.738 1.758-1.738h7.775c3.872 0 7-3.12 7-6.919 0-3.828-3.128-6.92-6.97-6.949h-7.805c-.983 0-1.757-.765-1.757-1.737v-1.62h9.532Zm24.757 0 .148.235 10.486 20.346H71.656l1.727-3.357h8.758l-6.702-12.984-8.46 16.34h-3.873l.06-.117 9.8-19.05a2.67 2.67 0 0 1 2.383-1.413h1.788Z"/></svg>