<svg xmlns="http://www.w3.org/2000/svg" width="113" height="12" fill="none"><path fill="#000" d="M10.233 3.889H4.77c-.644 0-1.167.499-1.167 1.113 0 .615.523 1.114 1.167 1.114h5.463c.644 0 1.167-.5 1.167-1.114 0-.614-.523-1.113-1.167-1.113Z"/><path fill="#000" d="M10.587.014C10.416.002 10.247 0 9.762 0H5.24c-.482 0-.654 0-.825.014C2.048.188.197 1.954.015 4.21A9.878 9.878 0 0 0 0 5c0 .456 0 .624.014.787.183 2.258 2.034 4.025 4.399 4.2.173.013.347.013.825.013H9.76c.478 0 .651 0 .825-.014 2.366-.174 4.218-1.94 4.4-4.197.015-.165.015-.33.015-.787 0-.456 0-.621-.014-.787-.183-2.258-2.032-4.025-4.401-4.2l.002-.001Zm2.075 5.603c-.093 1.156-1.041 2.061-2.256 2.15-.083.006-.252.006-.644.006H5.24c-.392 0-.56 0-.646-.007-1.212-.088-2.16-.993-2.256-2.154-.007-.08-.007-.24-.007-.614s0-.535.007-.617c.093-1.157 1.041-2.061 2.253-2.15.088-.007.264-.007.647-.007H9.76c.383 0 .558 0 .646.007 1.212.089 2.16.993 2.256 2.152.007.082.007.24.007.617 0 .376 0 .535-.007.617Zm12.426-1.709V.8h1.428v8.7h-1.428v-.852c-.384.636-1.056 1.008-1.92 1.008-1.536 0-2.808-1.308-2.808-3.384 0-2.064 1.272-3.372 2.808-3.372.864 0 1.536.372 1.92 1.008Zm.06 2.364c0-1.488-.744-2.208-1.668-2.208-.96 0-1.632.864-1.632 2.208 0 1.38.672 2.22 1.632 2.22.924 0 1.668-.732 1.668-2.22Zm7.972.408h-4.812c.096 1.2.936 1.788 1.752 1.788.756 0 1.332-.288 1.584-.9h1.404C32.76 8.6 31.776 9.656 30.12 9.656c-2.076 0-3.264-1.572-3.264-3.432 0-1.944 1.332-3.324 3.168-3.324 1.98 0 3.228 1.62 3.096 3.78Zm-3.096-2.664c-.672 0-1.584.408-1.716 1.62h3.36c-.036-1.008-.804-1.62-1.644-1.62Zm8.483.792h-1.343c-.157-.588-.697-.816-1.416-.816-.624 0-1.2.276-1.2.708 0 .432.3.66.863.768l.913.18c1.308.252 2.303.66 2.303 1.92 0 1.344-1.272 2.088-2.736 2.088-1.584 0-2.64-.912-2.795-2.124h1.392c.132.672.6 1.044 1.452 1.044.756 0 1.296-.312 1.296-.84s-.48-.756-1.116-.888l-.972-.192c-1.093-.228-1.945-.696-1.945-1.884 0-1.14 1.236-1.872 2.628-1.872 1.26 0 2.412.612 2.676 1.908ZM38.956.8h1.428v1.44h-1.428V.8Zm0 2.244h1.428V9.5h-1.428V3.044Zm6.479.864v-.864h1.428v5.808c0 2.088-1.032 2.976-3.072 2.976-1.416 0-2.532-.564-2.76-1.98h1.416c.132.612.516.852 1.38.852 1.068 0 1.608-.492 1.608-1.56v-.756c-.384.636-1.056 1.008-1.92 1.008-1.536 0-2.808-1.236-2.808-3.252s1.272-3.24 2.808-3.24c.864 0 1.536.372 1.92 1.008Zm.06 2.232c0-1.44-.744-2.1-1.668-2.1-.96 0-1.632.804-1.632 2.1 0 1.332.672 2.124 1.632 2.124.924 0 1.668-.672 1.668-2.124Zm3.556-3.096v.9c.372-.672 1.044-1.044 1.956-1.044 1.56 0 2.197 1.008 2.197 2.544V9.5h-1.428V5.792c0-.876-.12-1.728-1.225-1.728-1.104 0-1.5.84-1.5 2.004V9.5h-1.428V3.044h1.428Zm10.63 3.636H54.87c.096 1.2.936 1.788 1.752 1.788.756 0 1.332-.288 1.584-.9h1.404c-.288 1.032-1.272 2.088-2.928 2.088-2.076 0-3.264-1.572-3.264-3.432 0-1.944 1.332-3.324 3.168-3.324 1.98 0 3.228 1.62 3.096 3.78Zm-3.095-2.664c-.672 0-1.584.408-1.716 1.62h3.36c-.036-1.008-.804-1.62-1.644-1.62Zm7.786-.108V.8H65.8v8.7h-1.428v-.852c-.384.636-1.056 1.008-1.92 1.008-1.536 0-2.808-1.308-2.808-3.384 0-2.064 1.272-3.372 2.808-3.372.864 0 1.536.372 1.92 1.008Zm.06 2.364c0-1.488-.744-2.208-1.668-2.208-.96 0-1.632.864-1.632 2.208 0 1.38.672 2.22 1.632 2.22.924 0 1.668-.732 1.668-2.22Zm5.434 0c0 1.488.732 2.22 1.668 2.22.96 0 1.632-.84 1.632-2.22 0-1.344-.672-2.208-1.632-2.208-.936 0-1.668.72-1.668 2.208ZM68.498.8h1.428v3.108c.384-.636 1.056-1.008 1.92-1.008 1.536 0 2.808 1.308 2.808 3.372 0 2.076-1.272 3.384-2.808 3.384-.864 0-1.536-.372-1.92-1.008V9.5h-1.428V.8Zm6.763 10.8h-.648v-1.092h.54c.624 0 .888-.048 1.176-.888l.072-.156-2.34-6.42h1.56l1.464 4.632 1.464-4.632h1.464l-2.268 6.444c-.612 1.668-1.032 2.112-2.484 2.112Zm6.847-8.556V1.34h1.428v1.704h1.296v1.032h-1.296v3.516c0 .66.156.816.768.816h.516V9.5h-1.056c-1.38 0-1.656-.372-1.656-1.692V4.076h-.96V3.044h.96Zm7.03 3.912v-.492c-2.04.192-2.868.492-2.868 1.224 0 .564.468.9 1.188.9 1.056 0 1.68-.528 1.68-1.632Zm-1.992 2.7c-1.404 0-2.388-.756-2.388-1.932 0-1.62 1.992-2.004 4.344-2.256v-.12c0-1.104-.624-1.44-1.344-1.44-.72 0-1.26.384-1.296 1.164h-1.404c.096-1.308 1.188-2.22 2.748-2.22 1.548 0 2.76.708 2.724 2.772 0 .312-.024 1.08-.024 1.668 0 .816.06 1.668.192 2.208H89.39c-.048-.276-.084-.432-.12-.876-.42.708-1.164 1.032-2.124 1.032Zm5.416-3.588V9.5h-1.428V3.044h1.428v.9c.372-.672 1.008-1.044 1.872-1.044 1.008 0 1.584.42 1.884 1.14.564-.816 1.296-1.14 2.1-1.14 1.536 0 2.112 1.008 2.112 2.544V9.5h-1.428V5.792c0-.876-.084-1.728-1.14-1.728-1.056 0-1.416.84-1.416 2.004V9.5h-1.428V5.792c0-.876-.084-1.728-1.14-1.728-1.056 0-1.416.84-1.416 2.004Zm12.615.888v-.492c-2.04.192-2.868.492-2.868 1.224 0 .564.468.9 1.188.9 1.056 0 1.68-.528 1.68-1.632Zm-1.992 2.7c-1.404 0-2.388-.756-2.388-1.932 0-1.62 1.992-2.004 4.344-2.256v-.12c0-1.104-.624-1.44-1.344-1.44-.72 0-1.26.384-1.296 1.164h-1.404c.096-1.308 1.188-2.22 2.748-2.22 1.548 0 2.76.708 2.724 2.772 0 .312-.024 1.08-.024 1.668 0 .816.06 1.668.192 2.208h-1.308c-.048-.276-.084-.432-.12-.876-.42.708-1.164 1.032-2.124 1.032Zm9.016-4.848h-1.344c-.156-.588-.696-.816-1.416-.816-.624 0-1.2.276-1.2.708 0 .432.3.66.864.768l.912.18c1.308.252 2.304.66 2.304 1.92 0 1.344-1.272 2.088-2.736 2.088-1.584 0-2.64-.912-2.796-2.124h1.392c.132.672.6 1.044 1.452 1.044.756 0 1.296-.312 1.296-.84s-.48-.756-1.116-.888l-.972-.192c-1.092-.228-1.944-.696-1.944-1.884 0-1.14 1.236-1.872 2.628-1.872 1.26 0 2.412.612 2.676 1.908Z"/></svg>