<svg xmlns="http://www.w3.org/2000/svg" width="140" height="30" fill="none"><path fill="#DEDEE2" fill-rule="evenodd" d="m17.134 11.758 7.35 12.732 5.48-9.493-1.827-3.16-3.652 6.326L22.657 15l3.652-6.327-1.827-3.164-3.652 6.327-1.871-3.242 4.543-7.87h1.87l4.12 7.137.01.017L33.615 15l-8.241 14.275h-1.871L15.26 15l1.871-3.242h.003ZM8.894.725h3.652L4.302 15l6.417 11.112h3.652L7.957 15 16.198.725h3.653L11.609 15l8.242 14.273H8.894L.652 15 8.894.725Zm46.269 15.252v-2.326h9.083c.075.446.1.891.1 1.361 0 4.949-3.743 8.957-8.959 8.957-5.19 0-8.959-4.008-8.959-8.957 0-4.973 3.769-8.981 8.96-8.981 2.919 0 5.49 1.41 7.111 3.588l-2.021 1.558a6.194 6.194 0 0 0-5.09-2.672c-3.62 0-6.29 2.746-6.29 6.507 0 3.736 2.67 6.483 6.29 6.483 3.518 0 5.963-2.202 6.213-5.518h-6.438Zm11.104 7.67V6.327h9.683v2.4h-7.137v4.726h6.912v2.326h-6.912v5.394H76.1v2.474h-9.833Zm18.607-10.12h-2.446c-1.472 0-2.545-1.038-2.545-2.424 0-1.385 1.073-2.425 2.545-2.425h5.14v-2.35h-5.44c-2.695 0-4.84 2.128-4.84 4.775 0 2.647 2.145 4.775 4.84 4.775h2.297c1.497 0 2.695 1.163 2.695 2.648 0 1.46-1.198 2.647-2.695 2.647H78.11v2.474h6.563c2.97 0 5.14-2.4 5.14-5.121 0-2.673-2.195-4.998-4.94-4.998Zm10.812 0h2.446c2.745 0 4.941 2.326 4.941 4.999 0 2.721-2.171 5.121-5.14 5.121h-6.564v-2.474h6.314c1.497 0 2.695-1.188 2.695-2.647 0-1.485-1.198-2.648-2.695-2.648h-2.296c-2.695 0-4.841-2.128-4.841-4.775 0-2.647 2.146-4.775 4.841-4.775h5.44v2.35h-5.14c-1.473 0-2.546 1.04-2.546 2.425 0 1.386 1.073 2.425 2.545 2.425Zm8.991-7.2v17.32h9.683v-2.474h-7.137V6.328h-2.546Zm11.163 17.32V6.327h9.682v2.4h-7.137v4.726h6.913v2.326h-6.913v5.394h7.287v2.474h-9.832Zm24.121-.717c0-2.079-.749-4.256-2.92-5.493 1.422-.792 2.92-2.474 2.92-4.949 0-3.34-2.621-6.16-6.663-6.16h-5.565v17.32h2.545v-5.073h2.571c3.245 0 4.517 2.45 4.517 4.355v.717h2.595v-.717Zm-6.563-14.252c2.42 0 3.918 1.708 3.918 3.81 0 1.93-1.522 3.81-3.918 3.81h-3.12v-7.62h3.12Z" clip-rule="evenodd"/></svg>