<svg xmlns="http://www.w3.org/2000/svg" width="135" height="18" fill="none"><path fill="#DEDEE2" d="M14.251 17.788h-2.257l-7.58-9.596v9.475l-.116.12H.768l-.116-.12V.407l.116-.12h2.257c.222.19 1.476 1.78 3.761 4.767l3.82 4.828V.407l.115-.12h3.53l.116.12v17.26l-.116.12Zm16.379 0H18.187l-.116-.121V.407l.116-.12h12.21l.115.12v3.62l-.115.121h-8.622v2.897h8.217l.115.121v3.621l-.115.12h-8.217v3.018h8.853l.116.12v3.622l-.116.12Zm17.143 0h-4.456c-.328-.342-1.62-2.233-3.877-5.673h-.058l-3.935 5.673H31.05l-.116-.121 6.134-8.811-5.67-8.45v-.12h4.34c.665.855 1.86 2.605 3.587 5.25.145-.11 1.052-1.418 2.72-3.922l.984-1.328h4.34v.06l-5.671 8.45 6.076 8.87v.122Zm6.973.212c-2.45 0-4.398-1.167-5.844-3.5-.54-1.187-.81-2.253-.81-3.199V.378l.115-.12h3.472l.116.12v9.897c0 2.092.695 3.34 2.083 3.742l.695.12h.405c1.379 0 2.305-.804 2.778-2.414l.057-.663V.378l.116-.12h3.53l.116.12v10.5c0 3.35-1.582 5.623-4.745 6.82-.772.201-1.466.302-2.084.302Zm15.496-.016c-2.7 0-4.861-1.026-6.481-3.078-.357-.523-.724-1.247-1.1-2.172 2.122-1.127 3.24-1.69 3.356-1.69.753 2.052 2.122 3.078 4.109 3.078h.347c1.929-.14 2.894-.604 2.894-1.388l.057-.362c0-.865-1.64-1.529-4.918-1.992-3.318-.784-4.977-2.374-4.977-4.767V5.19c0-2.394 1.447-4.043 4.34-4.949.83-.16 1.505-.241 2.025-.241h.868c2.855 0 5.016 1.408 6.482 4.224v.182l-3.183 1.87c-.772-1.488-1.524-2.233-2.257-2.233 0-.08-.54-.16-1.62-.241-1.331 0-2.257.362-2.778 1.086a5.194 5.194 0 0 0-.115.543c0 .634 1.215 1.117 3.645 1.449 2.334.543 3.78 1.066 4.34 1.569 1.273 1.036 1.91 2.364 1.91 3.983 0 2.525-1.35 4.235-4.051 5.13-1.032.281-1.996.422-2.893.422Zm16.537.001h-.116c-3.327 0-5.835-1.468-7.523-4.405-.656-1.378-.983-2.746-.983-4.104v-.905c0-3.038 1.292-5.452 3.877-7.242C83.442.484 84.83.062 86.2.062h1.042c2.401 0 4.561 1.186 6.48 3.56-.009.11-.8 1.016-2.372 2.716-1.35-1.65-2.912-2.474-4.687-2.474-2.218 0-3.723 1.066-4.514 3.198-.192.584-.289 1.247-.289 1.992 0 2.736 1.273 4.405 3.82 5.009l1.157.06c1.176 0 2.14-.342 2.893-1.026V11.71h-4.803l-.116-.12V8.027l.116-.12h8.39l.116.12v6.759c-1.89 2.132-4.108 3.198-6.654 3.198Zm24.117-.197h-3.935c-.241-.363-.781-1.57-1.62-3.621h-6.655c-.068.03-.589 1.217-1.563 3.56l-.058.06h-3.934l-.058-.06h-.058l7.523-17.44h2.835c.135.08.752 1.468 1.852 4.163l5.729 13.277-.058.06Zm-5.555-3.621-3.299-8.208h-.116l-3.24 8.208h6.655Zm9.94 3.621h-3.53l-.115-.121V4.088h-4.977l-.116-.12V.406l.116-.12h13.773l.115.12v3.56l-.115.121h-5.035v13.579l-.116.12Zm19.256 0h-12.441l-.116-.121V.407l.116-.12h12.209l.117.12v3.62l-.117.121h-8.621v2.897h8.216l.117.121v3.621l-.117.12h-8.216v3.018h8.853l.115.12v3.622l-.115.12Z"/></svg>