<svg xmlns="http://www.w3.org/2000/svg" width="96" height="36" fill="none"><path fill="#DEDEE2" d="M28.202 15.872h2.9c1.614 0 2.567.934 2.567 2.47v9.028c0 1.537-.953 2.471-2.568 2.471h-2.899v-13.97Zm2.744 1.79h-.7v10.39h.7c.447 0 .68-.293.68-.837v-8.716c0-.545-.233-.837-.68-.837Zm3.716 12.179v-13.97h4.358v1.85h-2.334v3.949h2.004v1.848h-2.004v4.475h2.334v1.848h-4.358Zm7.563-1.653c.408 0 .642-.312.642-.876v-1.829c0-.564-.078-.817-.467-1.226l-1.849-1.75c-.72-.643-.953-1.207-.953-2.121v-2.199c0-1.498 1.031-2.47 2.646-2.47 1.635 0 2.666.972 2.666 2.47v2.821h-1.985v-2.607c0-.564-.233-.875-.642-.875-.409 0-.642.31-.642.875v1.479c0 .564.078.817.467 1.226l1.848 1.75c.72.643.954 1.207.954 2.121v2.549c0 1.498-1.07 2.47-2.685 2.47s-2.627-.933-2.627-2.47v-3.055h1.985v2.841c0 .564.233.875.642.875Zm3.59-12.316h2.063v13.97h-2.063v-13.97Zm8.427 2.315v2.918h-1.985v-2.684c0-.565-.233-.895-.68-.895-.41 0-.662.33-.662.895v8.872c0 .564.253.895.661.895.448 0 .681-.331.681-.895v-3.094h-.739v-1.848h2.724v7.49h-1.83v-.622c-.233.525-.7.778-1.38.778-1.265 0-2.16-.992-2.16-2.452v-9.358c0-1.479 1.09-2.47 2.724-2.47 1.615 0 2.646.972 2.646 2.47Zm4.926 11.654-2.042-9.164h-.04l.04 2.588v6.576h-1.849v-13.97h2.199l1.614 7.842h.04l-.04-2.88v-4.961h1.849v13.97h-1.77Zm4.382 0 1.732-13.97h2.646l1.732 13.97h-1.985l-.33-3.268h-1.557l-.33 3.268H63.55Zm2.997-10.759-.195 2.101-.37 3.658h1.168l-.37-3.658-.194-2.1h-.04Zm9.743 10.759h-2.121l-.642-8.852h-.04l-.641 8.852h-2.12l-1.324-13.97h2.101l.448 6.48.136 2.568h.039l.623-9.047h1.614l.623 9.047h.039l.156-2.568.428-6.48h2.004l-1.323 13.97Zm1.055 0 1.731-13.97h2.646l1.732 13.97h-1.985l-.33-3.268h-1.557l-.33 3.268h-1.907Zm2.996-10.759-.195 2.101-.37 3.658h1.168l-.37-3.658-.194-2.1h-.04Zm6.308 4.475h-.506v6.284H84.1v-13.97h2.977c1.576 0 2.49.876 2.49 2.413v2.685c0 .837-.408 1.46-1.128 1.693.759.33 1.128.973 1.128 1.848v3.483c0 .914.059 1.479.214 1.848h-2.043c-.155-.37-.214-.914-.214-1.79V24.55c0-.68-.272-.992-.875-.992Zm.875-2.588V18.5c0-.545-.233-.837-.68-.837h-.701v4.144h.7c.448 0 .681-.292.681-.837Zm3.017-5.097h2.899c1.615 0 2.568.934 2.568 2.47v9.028c0 1.537-.953 2.471-2.568 2.471h-2.9v-13.97Zm2.743 1.79h-.7v10.39h.7c.448 0 .681-.293.681-.837v-8.716c0-.545-.233-.837-.68-.837ZM.408 12.47a6.254 6.254 0 1 1 12.508 0v11.118a6.254 6.254 0 1 1-12.508 0V12.47Zm13.897-6.254h5.56v23.625h-5.56V6.216Zm6.949 0h4.169v5.56h-4.17v-5.56Zm0 6.949h4.169v5.559h-4.17v-5.56Z"/></svg>